<svg xmlns="http://www.w3.org/2000/svg" xmlns:xlink="http://www.w3.org/1999/xlink" contentStyleType="text/css" height="687px" preserveAspectRatio="none" style="width:483px;height:687px;background:#FFFFFF;" version="1.1" viewBox="0 0 483 687" width="483px" zoomAndPan="magnify"><defs/><g><!--class Veh?culo--><g id="elem_Veh&#237;culo"><rect codeLine="1" fill="#F1F1F1" height="48" id="Veh&#237;culo" rx="2.5" ry="2.5" style="stroke:#181818;stroke-width:0.5;" width="91.9785" x="197.25" y="7"/><ellipse cx="212.25" cy="23" fill="#ADD1B2" rx="11" ry="11" style="stroke:#181818;stroke-width:1.0;"/><path d="M215.2188,28.6406 Q214.6406,28.9375 214,29.0781 Q213.3594,29.2344 212.6563,29.2344 Q210.1563,29.2344 208.8281,27.5938 Q207.5156,25.9375 207.5156,22.8125 Q207.5156,19.6875 208.8281,18.0313 Q210.1563,16.375 212.6563,16.375 Q213.3594,16.375 214,16.5313 Q214.6563,16.6875 215.2188,16.9844 L215.2188,19.7031 Q214.5938,19.125 214,18.8594 Q213.4063,18.5781 212.7813,18.5781 Q211.4375,18.5781 210.75,19.6563 Q210.0625,20.7188 210.0625,22.8125 Q210.0625,24.9063 210.75,25.9844 Q211.4375,27.0469 212.7813,27.0469 Q213.4063,27.0469 214,26.7813 Q214.5938,26.5 215.2188,25.9219 L215.2188,28.6406 Z " fill="#000000"/><text fill="#000000" font-family="sans-serif" font-size="14" lengthAdjust="spacing" textLength="59.9785" x="226.25" y="27.8467">Veh&#237;culo</text><line style="stroke:#181818;stroke-width:0.5;" x1="198.25" x2="288.2285" y1="39" y2="39"/><line style="stroke:#181818;stroke-width:0.5;" x1="198.25" x2="288.2285" y1="47" y2="47"/></g><!--class Conductor--><g id="elem_Conductor"><rect codeLine="2" fill="#F1F1F1" height="48" id="Conductor" rx="2.5" ry="2.5" style="stroke:#181818;stroke-width:0.5;" width="104.4814" x="7" y="132"/><ellipse cx="22" cy="148" fill="#ADD1B2" rx="11" ry="11" style="stroke:#181818;stroke-width:1.0;"/><path d="M24.9688,153.6406 Q24.3906,153.9375 23.75,154.0781 Q23.1094,154.2344 22.4063,154.2344 Q19.9063,154.2344 18.5781,152.5938 Q17.2656,150.9375 17.2656,147.8125 Q17.2656,144.6875 18.5781,143.0313 Q19.9063,141.375 22.4063,141.375 Q23.1094,141.375 23.75,141.5313 Q24.4063,141.6875 24.9688,141.9844 L24.9688,144.7031 Q24.3438,144.125 23.75,143.8594 Q23.1563,143.5781 22.5313,143.5781 Q21.1875,143.5781 20.5,144.6563 Q19.8125,145.7188 19.8125,147.8125 Q19.8125,149.9063 20.5,150.9844 Q21.1875,152.0469 22.5313,152.0469 Q23.1563,152.0469 23.75,151.7813 Q24.3438,151.5 24.9688,150.9219 L24.9688,153.6406 Z " fill="#000000"/><text fill="#000000" font-family="sans-serif" font-size="14" lengthAdjust="spacing" textLength="72.4814" x="36" y="152.8467">Conductor</text><line style="stroke:#181818;stroke-width:0.5;" x1="8" x2="110.4814" y1="164" y2="164"/><line style="stroke:#181818;stroke-width:0.5;" x1="8" x2="110.4814" y1="172" y2="172"/></g><!--class Horario--><g id="elem_Horario"><rect codeLine="3" fill="#F1F1F1" height="48" id="Horario" rx="2.5" ry="2.5" style="stroke:#181818;stroke-width:0.5;" width="83.6387" x="56.42" y="632"/><ellipse cx="71.42" cy="648" fill="#ADD1B2" rx="11" ry="11" style="stroke:#181818;stroke-width:1.0;"/><path d="M74.3888,653.6406 Q73.8106,653.9375 73.17,654.0781 Q72.5294,654.2344 71.8263,654.2344 Q69.3263,654.2344 67.9981,652.5938 Q66.6856,650.9375 66.6856,647.8125 Q66.6856,644.6875 67.9981,643.0313 Q69.3263,641.375 71.8263,641.375 Q72.5294,641.375 73.17,641.5313 Q73.8263,641.6875 74.3888,641.9844 L74.3888,644.7031 Q73.7638,644.125 73.17,643.8594 Q72.5763,643.5781 71.9513,643.5781 Q70.6075,643.5781 69.92,644.6563 Q69.2325,645.7188 69.2325,647.8125 Q69.2325,649.9063 69.92,650.9844 Q70.6075,652.0469 71.9513,652.0469 Q72.5763,652.0469 73.17,651.7813 Q73.7638,651.5 74.3888,650.9219 L74.3888,653.6406 Z " fill="#000000"/><text fill="#000000" font-family="sans-serif" font-size="14" lengthAdjust="spacing" textLength="51.6387" x="85.42" y="652.8467">Horario</text><line style="stroke:#181818;stroke-width:0.5;" x1="57.42" x2="139.0587" y1="664" y2="664"/><line style="stroke:#181818;stroke-width:0.5;" x1="57.42" x2="139.0587" y1="672" y2="672"/></g><!--class Empresa--><g id="elem_Empresa"><rect codeLine="4" fill="#F1F1F1" height="48" id="Empresa" rx="2.5" ry="2.5" style="stroke:#181818;stroke-width:0.5;" width="93.6123" x="258.43" y="132"/><ellipse cx="273.43" cy="148" fill="#ADD1B2" rx="11" ry="11" style="stroke:#181818;stroke-width:1.0;"/><path d="M276.3988,153.6406 Q275.8206,153.9375 275.18,154.0781 Q274.5394,154.2344 273.8363,154.2344 Q271.3363,154.2344 270.0081,152.5938 Q268.6956,150.9375 268.6956,147.8125 Q268.6956,144.6875 270.0081,143.0313 Q271.3363,141.375 273.8363,141.375 Q274.5394,141.375 275.18,141.5313 Q275.8363,141.6875 276.3988,141.9844 L276.3988,144.7031 Q275.7738,144.125 275.18,143.8594 Q274.5863,143.5781 273.9613,143.5781 Q272.6175,143.5781 271.93,144.6563 Q271.2425,145.7188 271.2425,147.8125 Q271.2425,149.9063 271.93,150.9844 Q272.6175,152.0469 273.9613,152.0469 Q274.5863,152.0469 275.18,151.7813 Q275.7738,151.5 276.3988,150.9219 L276.3988,153.6406 Z " fill="#000000"/><text fill="#000000" font-family="sans-serif" font-size="14" lengthAdjust="spacing" textLength="61.6123" x="287.43" y="152.8467">Empresa</text><line style="stroke:#181818;stroke-width:0.5;" x1="259.43" x2="351.0423" y1="164" y2="164"/><line style="stroke:#181818;stroke-width:0.5;" x1="259.43" x2="351.0423" y1="172" y2="172"/></g><!--class Incidencia--><g id="elem_Incidencia"><rect codeLine="5" fill="#F1F1F1" height="48" id="Incidencia" rx="2.5" ry="2.5" style="stroke:#181818;stroke-width:0.5;" width="103.1279" x="328.68" y="257"/><ellipse cx="343.68" cy="273" fill="#ADD1B2" rx="11" ry="11" style="stroke:#181818;stroke-width:1.0;"/><path d="M346.6488,278.6406 Q346.0706,278.9375 345.43,279.0781 Q344.7894,279.2344 344.0863,279.2344 Q341.5863,279.2344 340.2581,277.5938 Q338.9456,275.9375 338.9456,272.8125 Q338.9456,269.6875 340.2581,268.0313 Q341.5863,266.375 344.0863,266.375 Q344.7894,266.375 345.43,266.5313 Q346.0863,266.6875 346.6488,266.9844 L346.6488,269.7031 Q346.0238,269.125 345.43,268.8594 Q344.8363,268.5781 344.2113,268.5781 Q342.8675,268.5781 342.18,269.6563 Q341.4925,270.7188 341.4925,272.8125 Q341.4925,274.9063 342.18,275.9844 Q342.8675,277.0469 344.2113,277.0469 Q344.8363,277.0469 345.43,276.7813 Q346.0238,276.5 346.6488,275.9219 L346.6488,278.6406 Z " fill="#000000"/><text fill="#000000" font-family="sans-serif" font-size="14" lengthAdjust="spacing" textLength="71.1279" x="357.68" y="277.8467">Incidencia</text><line style="stroke:#181818;stroke-width:0.5;" x1="329.68" x2="430.8079" y1="289" y2="289"/><line style="stroke:#181818;stroke-width:0.5;" x1="329.68" x2="430.8079" y1="297" y2="297"/></g><!--class Tarifa--><g id="elem_Tarifa"><rect codeLine="6" fill="#F1F1F1" height="48" id="Tarifa" rx="2.5" ry="2.5" style="stroke:#181818;stroke-width:0.5;" width="72.2842" x="134.1" y="382"/><ellipse cx="149.1" cy="398" fill="#ADD1B2" rx="11" ry="11" style="stroke:#181818;stroke-width:1.0;"/><path d="M152.0688,403.6406 Q151.4906,403.9375 150.85,404.0781 Q150.2094,404.2344 149.5063,404.2344 Q147.0063,404.2344 145.6781,402.5938 Q144.3656,400.9375 144.3656,397.8125 Q144.3656,394.6875 145.6781,393.0313 Q147.0063,391.375 149.5063,391.375 Q150.2094,391.375 150.85,391.5313 Q151.5063,391.6875 152.0688,391.9844 L152.0688,394.7031 Q151.4438,394.125 150.85,393.8594 Q150.2563,393.5781 149.6313,393.5781 Q148.2875,393.5781 147.6,394.6563 Q146.9125,395.7188 146.9125,397.8125 Q146.9125,399.9063 147.6,400.9844 Q148.2875,402.0469 149.6313,402.0469 Q150.2563,402.0469 150.85,401.7813 Q151.4438,401.5 152.0688,400.9219 L152.0688,403.6406 Z " fill="#000000"/><text fill="#000000" font-family="sans-serif" font-size="14" lengthAdjust="spacing" textLength="40.2842" x="163.1" y="402.8467">Tarifa</text><line style="stroke:#181818;stroke-width:0.5;" x1="135.1" x2="205.3842" y1="414" y2="414"/><line style="stroke:#181818;stroke-width:0.5;" x1="135.1" x2="205.3842" y1="422" y2="422"/></g><!--class Servicio--><g id="elem_Servicio"><rect codeLine="7" fill="#F1F1F1" height="48" id="Servicio" rx="2.5" ry="2.5" style="stroke:#181818;stroke-width:0.5;" width="87.583" x="103.45" y="507"/><ellipse cx="118.45" cy="523" fill="#ADD1B2" rx="11" ry="11" style="stroke:#181818;stroke-width:1.0;"/><path d="M121.4188,528.6406 Q120.8406,528.9375 120.2,529.0781 Q119.5594,529.2344 118.8563,529.2344 Q116.3563,529.2344 115.0281,527.5938 Q113.7156,525.9375 113.7156,522.8125 Q113.7156,519.6875 115.0281,518.0313 Q116.3563,516.375 118.8563,516.375 Q119.5594,516.375 120.2,516.5313 Q120.8563,516.6875 121.4188,516.9844 L121.4188,519.7031 Q120.7938,519.125 120.2,518.8594 Q119.6063,518.5781 118.9813,518.5781 Q117.6375,518.5781 116.95,519.6563 Q116.2625,520.7188 116.2625,522.8125 Q116.2625,524.9063 116.95,525.9844 Q117.6375,527.0469 118.9813,527.0469 Q119.6063,527.0469 120.2,526.7813 Q120.7938,526.5 121.4188,525.9219 L121.4188,528.6406 Z " fill="#000000"/><text fill="#000000" font-family="sans-serif" font-size="14" lengthAdjust="spacing" textLength="55.583" x="132.45" y="527.8467">Servicio</text><line style="stroke:#181818;stroke-width:0.5;" x1="104.45" x2="190.033" y1="539" y2="539"/><line style="stroke:#181818;stroke-width:0.5;" x1="104.45" x2="190.033" y1="547" y2="547"/></g><!--class MetodoPago--><g id="elem_MetodoPago"><rect codeLine="8" fill="#F1F1F1" height="48" id="MetodoPago" rx="2.5" ry="2.5" style="stroke:#181818;stroke-width:0.5;" width="118.6729" x="225.9" y="507"/><ellipse cx="240.9" cy="523" fill="#A9DCDF" rx="11" ry="11" style="stroke:#181818;stroke-width:1.0;"/><path d="M241.0094,518.3438 L239.8531,523.4219 L242.1813,523.4219 L241.0094,518.3438 Z M239.525,516.1094 L242.5094,516.1094 L245.8688,528.5 L243.4156,528.5 L242.65,525.4375 L239.3688,525.4375 L238.6188,528.5 L236.1813,528.5 L239.525,516.1094 Z " fill="#000000"/><text fill="#000000" font-family="sans-serif" font-size="14" font-style="italic" lengthAdjust="spacing" textLength="86.6729" x="254.9" y="527.8467">MetodoPago</text><line style="stroke:#181818;stroke-width:0.5;" x1="226.9" x2="343.5729" y1="539" y2="539"/><line style="stroke:#181818;stroke-width:0.5;" x1="226.9" x2="343.5729" y1="547" y2="547"/></g><!--class Tarjeta--><g id="elem_Tarjeta"><rect codeLine="9" fill="#F1F1F1" height="48" id="Tarjeta" rx="2.5" ry="2.5" style="stroke:#181818;stroke-width:0.5;" width="81.458" x="227.51" y="632"/><ellipse cx="242.51" cy="648" fill="#ADD1B2" rx="11" ry="11" style="stroke:#181818;stroke-width:1.0;"/><path d="M245.4788,653.6406 Q244.9006,653.9375 244.26,654.0781 Q243.6194,654.2344 242.9163,654.2344 Q240.4163,654.2344 239.0881,652.5938 Q237.7756,650.9375 237.7756,647.8125 Q237.7756,644.6875 239.0881,643.0313 Q240.4163,641.375 242.9163,641.375 Q243.6194,641.375 244.26,641.5313 Q244.9163,641.6875 245.4788,641.9844 L245.4788,644.7031 Q244.8538,644.125 244.26,643.8594 Q243.6663,643.5781 243.0413,643.5781 Q241.6975,643.5781 241.01,644.6563 Q240.3225,645.7188 240.3225,647.8125 Q240.3225,649.9063 241.01,650.9844 Q241.6975,652.0469 243.0413,652.0469 Q243.6663,652.0469 244.26,651.7813 Q244.8538,651.5 245.4788,650.9219 L245.4788,653.6406 Z " fill="#000000"/><text fill="#000000" font-family="sans-serif" font-size="14" lengthAdjust="spacing" textLength="49.458" x="256.51" y="652.8467">Tarjeta</text><line style="stroke:#181818;stroke-width:0.5;" x1="228.51" x2="307.968" y1="664" y2="664"/><line style="stroke:#181818;stroke-width:0.5;" x1="228.51" x2="307.968" y1="672" y2="672"/></g><!--class Efectivo--><g id="elem_Efectivo"><rect codeLine="10" fill="#F1F1F1" height="48" id="Efectivo" rx="2.5" ry="2.5" style="stroke:#181818;stroke-width:0.5;" width="88.3145" x="344.08" y="632"/><ellipse cx="359.08" cy="648" fill="#ADD1B2" rx="11" ry="11" style="stroke:#181818;stroke-width:1.0;"/><path d="M362.0488,653.6406 Q361.4706,653.9375 360.83,654.0781 Q360.1894,654.2344 359.4863,654.2344 Q356.9863,654.2344 355.6581,652.5938 Q354.3456,650.9375 354.3456,647.8125 Q354.3456,644.6875 355.6581,643.0313 Q356.9863,641.375 359.4863,641.375 Q360.1894,641.375 360.83,641.5313 Q361.4863,641.6875 362.0488,641.9844 L362.0488,644.7031 Q361.4238,644.125 360.83,643.8594 Q360.2363,643.5781 359.6113,643.5781 Q358.2675,643.5781 357.58,644.6563 Q356.8925,645.7188 356.8925,647.8125 Q356.8925,649.9063 357.58,650.9844 Q358.2675,652.0469 359.6113,652.0469 Q360.2363,652.0469 360.83,651.7813 Q361.4238,651.5 362.0488,650.9219 L362.0488,653.6406 Z " fill="#000000"/><text fill="#000000" font-family="sans-serif" font-size="14" lengthAdjust="spacing" textLength="56.3145" x="373.08" y="652.8467">Efectivo</text><line style="stroke:#181818;stroke-width:0.5;" x1="345.08" x2="431.3945" y1="664" y2="664"/><line style="stroke:#181818;stroke-width:0.5;" x1="345.08" x2="431.3945" y1="672" y2="672"/></g><!--class Pasajero--><g id="elem_Pasajero"><rect codeLine="11" fill="#F1F1F1" height="48" id="Pasajero" rx="2.5" ry="2.5" style="stroke:#181818;stroke-width:0.5;" width="91.7188" x="124.38" y="257"/><ellipse cx="139.38" cy="273" fill="#ADD1B2" rx="11" ry="11" style="stroke:#181818;stroke-width:1.0;"/><path d="M142.3488,278.6406 Q141.7706,278.9375 141.13,279.0781 Q140.4894,279.2344 139.7863,279.2344 Q137.2863,279.2344 135.9581,277.5938 Q134.6456,275.9375 134.6456,272.8125 Q134.6456,269.6875 135.9581,268.0313 Q137.2863,266.375 139.7863,266.375 Q140.4894,266.375 141.13,266.5313 Q141.7863,266.6875 142.3488,266.9844 L142.3488,269.7031 Q141.7238,269.125 141.13,268.8594 Q140.5363,268.5781 139.9113,268.5781 Q138.5675,268.5781 137.88,269.6563 Q137.1925,270.7188 137.1925,272.8125 Q137.1925,274.9063 137.88,275.9844 Q138.5675,277.0469 139.9113,277.0469 Q140.5363,277.0469 141.13,276.7813 Q141.7238,276.5 142.3488,275.9219 L142.3488,278.6406 Z " fill="#000000"/><text fill="#000000" font-family="sans-serif" font-size="14" lengthAdjust="spacing" textLength="59.7188" x="153.38" y="277.8467">Pasajero</text><line style="stroke:#181818;stroke-width:0.5;" x1="125.38" x2="215.0988" y1="289" y2="289"/><line style="stroke:#181818;stroke-width:0.5;" x1="125.38" x2="215.0988" y1="297" y2="297"/></g><!--link Veh?culo to Conductor--><g id="link_Veh&#237;culo_Conductor"><path codeLine="13" d="M196.87,45.79 C172.06,54.56 141.85,67.57 118.24,85 C100.85,97.83 88.7871,111.9217 78.0171,126.8717 " fill="none" id="Veh&#237;culo-to-Conductor" style="stroke:#181818;stroke-width:1.0;"/><polygon fill="#181818" points="74.51,131.74,83.0162,126.7757,77.4326,127.6831,76.5252,122.0995,74.51,131.74" style="stroke:#181818;stroke-width:1.0;"/><text fill="#000000" font-family="sans-serif" font-size="13" lengthAdjust="spacing" textLength="35.7881" x="119.24" y="98.0669">Tiene</text></g><!--link Veh?culo to Empresa--><g id="link_Veh&#237;culo_Empresa"><path codeLine="14" d="M255.05,55.42 C266.08,77.31 279.7591,104.4423 290.7791,126.3023 " fill="none" id="Veh&#237;culo-to-Empresa" style="stroke:#181818;stroke-width:1.0;"/><polygon fill="#181818" points="293.48,131.66,293.0004,121.8228,291.2292,127.1952,285.8568,125.424,293.48,131.66" style="stroke:#181818;stroke-width:1.0;"/><text fill="#000000" font-family="sans-serif" font-size="13" lengthAdjust="spacing" textLength="65.6602" x="279.24" y="98.0669">Pertenece</text></g><!--link Empresa to Incidencia--><g id="link_Empresa_Incidencia"><path codeLine="15" d="M314.21,180.45 C319.98,194.42 328.08,212.24 337.24,227 C343.61,237.27 347.8777,243.17 355.3477,252.09 " fill="none" id="Empresa-to-Incidencia" style="stroke:#181818;stroke-width:1.0;"/><polygon fill="#181818" points="359.2,256.69,356.4883,247.2218,355.9898,252.8567,350.3549,252.3581,359.2,256.69" style="stroke:#181818;stroke-width:1.0;"/><text fill="#000000" font-family="sans-serif" font-size="13" lengthAdjust="spacing" textLength="57.7129" x="338.24" y="223.0669">Gestiona</text></g><!--link Conductor to Horario--><g id="link_Conductor_Horario"><path codeLine="16" d="M56.54,180.09 C53.89,204.78 50.24,245.1 50.24,280 C50.24,280 50.24,280 50.24,532 C50.24,568.68 65.9571,602.373 80.0171,626.373 " fill="none" id="Conductor-to-Horario" style="stroke:#181818;stroke-width:1.0;"/><polygon fill="#181818" points="83.05,631.55,81.952,621.7625,80.5226,627.2358,75.0493,625.8064,83.05,631.55" style="stroke:#181818;stroke-width:1.0;"/><text fill="#000000" font-family="sans-serif" font-size="13" lengthAdjust="spacing" textLength="36.353" x="51.24" y="410.5669">Sigue</text></g><!--link Conductor to Pasajero--><g id="link_Conductor_Pasajero"><path codeLine="17" d="M72.11,180.33 C80.55,194.58 92.38,212.75 105.24,227 C114.9,237.7 122.1027,244.3296 133.0727,252.9996 " fill="none" id="Conductor-to-Pasajero" style="stroke:#181818;stroke-width:1.0;"/><polygon fill="#181818" points="137.78,256.72,133.1993,248.0012,133.8572,253.6197,128.2388,254.2777,137.78,256.72" style="stroke:#181818;stroke-width:1.0;"/><text fill="#000000" font-family="sans-serif" font-size="13" lengthAdjust="spacing" textLength="48.3818" x="106.24" y="223.0669">Recoge</text></g><!--link Pasajero to Tarifa--><g id="link_Pasajero_Tarifa"><path codeLine="18" d="M170.24,305.42 C170.24,327.31 170.24,353.8 170.24,375.66 " fill="none" id="Pasajero-to-Tarifa" style="stroke:#181818;stroke-width:1.0;"/><polygon fill="#181818" points="170.24,381.66,174.24,372.66,170.24,376.66,166.24,372.66,170.24,381.66" style="stroke:#181818;stroke-width:1.0;"/><text fill="#000000" font-family="sans-serif" font-size="13" lengthAdjust="spacing" textLength="32.0239" x="171.24" y="348.0669">Paga</text></g><!--link Tarifa to Servicio--><g id="link_Tarifa_Servicio"><path codeLine="19" d="M165.86,430.42 C161.77,452.31 156.7935,478.9023 152.7035,500.7623 " fill="none" id="Tarifa-to-Servicio" style="stroke:#181818;stroke-width:1.0;"/><polygon fill="#181818" points="151.6,506.66,157.1869,498.5491,152.5195,501.7453,149.3234,497.0779,151.6,506.66" style="stroke:#181818;stroke-width:1.0;"/><text fill="#000000" font-family="sans-serif" font-size="13" lengthAdjust="spacing" textLength="58.7476" x="161.24" y="473.0669">Depende</text></g><!--link Tarifa to MetodoPago--><g id="link_Tarifa_MetodoPago"><path codeLine="20" d="M197.58,430.48 C207.54,439.42 218.69,449.89 228.24,460 C242.23,474.81 253.0221,487.8972 263.8921,501.8472 " fill="none" id="Tarifa-to-MetodoPago" style="stroke:#181818;stroke-width:1.0;"/><polygon fill="#181818" points="267.58,506.58,265.2034,497.0222,264.5068,502.636,258.893,501.9393,267.58,506.58" style="stroke:#181818;stroke-width:1.0;"/><text fill="#000000" font-family="sans-serif" font-size="13" lengthAdjust="spacing" textLength="75.7148" x="244.24" y="473.0669">Pagada con</text></g><!--link Pasajero to Veh?culo--><g id="link_Pasajero_Veh&#237;culo"><path codeLine="21" d="M173.2,256.53 C177.3,227.01 185.76,174.97 199.24,132 C207.76,104.85 218.7427,80.5695 228.5827,60.6495 " fill="none" id="Pasajero-to-Veh&#237;culo" style="stroke:#181818;stroke-width:1.0;"/><polygon fill="#181818" points="231.24,55.27,223.6677,61.5676,229.0256,59.7529,230.8403,65.1107,231.24,55.27" style="stroke:#181818;stroke-width:1.0;"/><text fill="#000000" font-family="sans-serif" font-size="13" lengthAdjust="spacing" textLength="40.9805" x="200.24" y="160.5669">Suben</text></g><!--link Servicio to Horario--><g id="link_Servicio_Horario"><path codeLine="22" d="M137.91,555.42 C129.19,577.31 118.4709,604.2262 109.7609,626.0862 " fill="none" id="Servicio-to-Horario" style="stroke:#181818;stroke-width:1.0;"/><polygon fill="#181818" points="107.54,631.66,114.5872,624.7798,109.3907,627.0151,107.1554,621.8187,107.54,631.66" style="stroke:#181818;stroke-width:1.0;"/><text fill="#000000" font-family="sans-serif" font-size="13" lengthAdjust="spacing" textLength="99.9058" x="127.24" y="598.0669">Programado en</text></g><!--link Incidencia to Veh?culo--><g id="link_Incidencia_Veh&#237;culo"><path codeLine="23" d="M391.19,256.51 C394.83,247.49 398.42,236.97 400.24,227 C412.17,161.6 398.1,134.06 353.24,85 C336.29,66.46 317.0641,55.8734 295.2841,47.5434 " fill="none" id="Incidencia-to-Veh&#237;culo" style="stroke:#181818;stroke-width:1.0;"/><polygon fill="#181818" points="289.68,45.4,296.6573,52.3511,294.3501,47.1861,299.5151,44.879,289.68,45.4" style="stroke:#181818;stroke-width:1.0;"/><text fill="#000000" font-family="sans-serif" font-size="13" lengthAdjust="spacing" textLength="70.6621" x="405.24" y="160.5669">Asociada a</text></g><!--reverse link MetodoPago to Tarjeta--><g id="link_MetodoPago_Tarjeta"><path codeLine="24" d="M279.54,573.2511 C276.52,595.1411 274.49,609.8 271.47,631.66 " fill="none" id="MetodoPago-backto-Tarjeta" style="stroke:#181818;stroke-width:1.0;"/><polygon fill="none" points="282,555.42,273.5963,572.4311,285.4837,574.0711,282,555.42" style="stroke:#181818;stroke-width:1.0;"/></g><!--reverse link MetodoPago to Efectivo--><g id="link_MetodoPago_Efectivo"><path codeLine="25" d="M316.4124,569.2237 C334.7324,591.1137 350.39,609.8 368.7,631.66 " fill="none" id="MetodoPago-backto-Efectivo" style="stroke:#181818;stroke-width:1.0;"/><polygon fill="none" points="304.86,555.42,311.8112,573.0745,321.0137,565.3728,304.86,555.42" style="stroke:#181818;stroke-width:1.0;"/></g><!--SRC=[NP5DJWCn38NtEOKlC1U8418212oGHct5tdNSaAgDgoJJ5LVY55oC12R9T3QH_3x_F3jqmXZXWpz_lcaw2IZw4nx5cucIX2gyIi3W6dy-Nm97hE6R9sSuFqtPvUn3YxOShevAEUvZ2aW9_i4x9p4oefLUT-I4TSo1ARbhXID6F7B8RLHtF0pt2xiQTeuzhtYrgs7aa38dLbKhVE5Vmml7vCIZwbrBJhs0Xgsp4wzeiwPXmoIMLLCAdi-HvwD5DKS5jCjeUE8BUyDBsiypbne44d_Rkw-QhKrxzgerlVKz1h41psW4Sj9YvtMNXoXPphDGBHpSVGr3-v-rNd_g5m00]--></g></svg>