<svg xmlns="http://www.w3.org/2000/svg" xmlns:xlink="http://www.w3.org/1999/xlink" contentStyleType="text/css" height="801px" preserveAspectRatio="none" style="width:580px;height:801px;background:#FFFFFF;" version="1.1" viewBox="0 0 580 801" width="580px" zoomAndPan="magnify"><defs/><g><!--class Veh?culo--><g id="elem_Veh&#237;culo"><rect codeLine="1" fill="#F1F1F1" height="64.2969" id="Veh&#237;culo" rx="2.5" ry="2.5" style="stroke:#181818;stroke-width:0.5;" width="129.8994" x="229.47" y="7"/><ellipse cx="261.5344" cy="23" fill="#ADD1B2" rx="11" ry="11" style="stroke:#181818;stroke-width:1.0;"/><path d="M264.5032,28.6406 Q263.925,28.9375 263.2844,29.0781 Q262.6438,29.2344 261.9407,29.2344 Q259.4407,29.2344 258.1125,27.5938 Q256.8,25.9375 256.8,22.8125 Q256.8,19.6875 258.1125,18.0313 Q259.4407,16.375 261.9407,16.375 Q262.6438,16.375 263.2844,16.5313 Q263.9407,16.6875 264.5032,16.9844 L264.5032,19.7031 Q263.8782,19.125 263.2844,18.8594 Q262.6907,18.5781 262.0657,18.5781 Q260.7219,18.5781 260.0344,19.6563 Q259.3469,20.7188 259.3469,22.8125 Q259.3469,24.9063 260.0344,25.9844 Q260.7219,27.0469 262.0657,27.0469 Q262.6907,27.0469 263.2844,26.7813 Q263.8782,26.5 264.5032,25.9219 L264.5032,28.6406 Z " fill="#000000"/><text fill="#000000" font-family="sans-serif" font-size="14" lengthAdjust="spacing" textLength="59.9785" x="279.3265" y="27.8467">Veh&#237;culo</text><line style="stroke:#181818;stroke-width:0.5;" x1="230.47" x2="358.3694" y1="39" y2="39"/><text fill="#000000" font-family="sans-serif" font-size="14" lengthAdjust="spacing" textLength="117.8994" x="235.47" y="55.9951">tipo = "Autob&#250;s"</text><line style="stroke:#181818;stroke-width:0.5;" x1="230.47" x2="358.3694" y1="63.2969" y2="63.2969"/></g><!--class Conductor--><g id="elem_Conductor"><rect codeLine="4" fill="#F1F1F1" height="64.2969" id="Conductor" rx="2.5" ry="2.5" style="stroke:#181818;stroke-width:0.5;" width="148.8418" x="7" y="148.3"/><ellipse cx="41.9622" cy="164.3" fill="#ADD1B2" rx="11" ry="11" style="stroke:#181818;stroke-width:1.0;"/><path d="M44.9309,169.9406 Q44.3528,170.2375 43.7122,170.3781 Q43.0715,170.5344 42.3684,170.5344 Q39.8684,170.5344 38.5403,168.8938 Q37.2278,167.2375 37.2278,164.1125 Q37.2278,160.9875 38.5403,159.3313 Q39.8684,157.675 42.3684,157.675 Q43.0715,157.675 43.7122,157.8313 Q44.3684,157.9875 44.9309,158.2844 L44.9309,161.0031 Q44.3059,160.425 43.7122,160.1594 Q43.1184,159.8781 42.4934,159.8781 Q41.1497,159.8781 40.4622,160.9563 Q39.7747,162.0188 39.7747,164.1125 Q39.7747,166.2063 40.4622,167.2844 Q41.1497,168.3469 42.4934,168.3469 Q43.1184,168.3469 43.7122,168.0813 Q44.3059,167.8 44.9309,167.2219 L44.9309,169.9406 Z " fill="#000000"/><text fill="#000000" font-family="sans-serif" font-size="14" lengthAdjust="spacing" textLength="72.4814" x="60.3982" y="169.1467">Conductor</text><line style="stroke:#181818;stroke-width:0.5;" x1="8" x2="154.8418" y1="180.3" y2="180.3"/><text fill="#000000" font-family="sans-serif" font-size="14" lengthAdjust="spacing" textLength="136.8418" x="13" y="197.2951">nombre = "Andr&#233;s"</text><line style="stroke:#181818;stroke-width:0.5;" x1="8" x2="154.8418" y1="204.5969" y2="204.5969"/></g><!--class Horario--><g id="elem_Horario"><rect codeLine="7" fill="#F1F1F1" height="64.2969" id="Horario" rx="2.5" ry="2.5" style="stroke:#181818;stroke-width:0.5;" width="184.0879" x="21.38" y="729.78"/><ellipse cx="83.3546" cy="745.78" fill="#ADD1B2" rx="11" ry="11" style="stroke:#181818;stroke-width:1.0;"/><path d="M86.3234,751.4206 Q85.7452,751.7175 85.1046,751.8581 Q84.464,752.0144 83.7609,752.0144 Q81.2609,752.0144 79.9327,750.3738 Q78.6202,748.7175 78.6202,745.5925 Q78.6202,742.4675 79.9327,740.8113 Q81.2609,739.155 83.7609,739.155 Q84.464,739.155 85.1046,739.3113 Q85.7609,739.4675 86.3234,739.7644 L86.3234,742.4831 Q85.6984,741.905 85.1046,741.6394 Q84.5109,741.3581 83.8859,741.3581 Q82.5421,741.3581 81.8546,742.4363 Q81.1671,743.4988 81.1671,745.5925 Q81.1671,747.6863 81.8546,748.7644 Q82.5421,749.8269 83.8859,749.8269 Q84.5109,749.8269 85.1046,749.5613 Q85.6984,749.28 86.3234,748.7019 L86.3234,751.4206 Z " fill="#000000"/><text fill="#000000" font-family="sans-serif" font-size="14" lengthAdjust="spacing" textLength="51.6387" x="103.8546" y="750.6267">Horario</text><line style="stroke:#181818;stroke-width:0.5;" x1="22.38" x2="204.4679" y1="761.78" y2="761.78"/><text fill="#000000" font-family="sans-serif" font-size="14" lengthAdjust="spacing" textLength="172.0879" x="27.38" y="778.7751">Frecuencia = "Cada 20'"</text><line style="stroke:#181818;stroke-width:0.5;" x1="22.38" x2="204.4679" y1="786.0769" y2="786.0769"/></g><!--class Empresa--><g id="elem_Empresa"><rect codeLine="10" fill="#F1F1F1" height="64.2969" id="Empresa" rx="2.5" ry="2.5" style="stroke:#181818;stroke-width:0.5;" width="121.71" x="302.57" y="148.3"/><ellipse cx="330.2139" cy="164.3" fill="#ADD1B2" rx="11" ry="11" style="stroke:#181818;stroke-width:1.0;"/><path d="M333.1827,169.9406 Q332.6046,170.2375 331.9639,170.3781 Q331.3233,170.5344 330.6202,170.5344 Q328.1202,170.5344 326.7921,168.8938 Q325.4796,167.2375 325.4796,164.1125 Q325.4796,160.9875 326.7921,159.3313 Q328.1202,157.675 330.6202,157.675 Q331.3233,157.675 331.9639,157.8313 Q332.6202,157.9875 333.1827,158.2844 L333.1827,161.0031 Q332.5577,160.425 331.9639,160.1594 Q331.3702,159.8781 330.7452,159.8781 Q329.4014,159.8781 328.7139,160.9563 Q328.0264,162.0188 328.0264,164.1125 Q328.0264,166.2063 328.7139,167.2844 Q329.4014,168.3469 330.7452,168.3469 Q331.3702,168.3469 331.9639,168.0813 Q332.5577,167.8 333.1827,167.2219 L333.1827,169.9406 Z " fill="#000000"/><text fill="#000000" font-family="sans-serif" font-size="14" lengthAdjust="spacing" textLength="61.6123" x="347.0237" y="169.1467">Empresa</text><line style="stroke:#181818;stroke-width:0.5;" x1="303.57" x2="423.28" y1="180.3" y2="180.3"/><text fill="#000000" font-family="sans-serif" font-size="14" lengthAdjust="spacing" textLength="109.71" x="308.57" y="197.2951">Nombre ="Tus"</text><line style="stroke:#181818;stroke-width:0.5;" x1="303.57" x2="423.28" y1="204.5969" y2="204.5969"/></g><!--class Incidencia--><g id="elem_Incidencia"><rect codeLine="13" fill="#F1F1F1" height="64.2969" id="Incidencia" rx="2.5" ry="2.5" style="stroke:#181818;stroke-width:0.5;" width="228.4805" x="345.18" y="289.6"/><ellipse cx="419.6063" cy="305.6" fill="#ADD1B2" rx="11" ry="11" style="stroke:#181818;stroke-width:1.0;"/><path d="M422.575,311.2406 Q421.9969,311.5375 421.3563,311.6781 Q420.7156,311.8344 420.0125,311.8344 Q417.5125,311.8344 416.1844,310.1938 Q414.8719,308.5375 414.8719,305.4125 Q414.8719,302.2875 416.1844,300.6313 Q417.5125,298.975 420.0125,298.975 Q420.7156,298.975 421.3563,299.1313 Q422.0125,299.2875 422.575,299.5844 L422.575,302.3031 Q421.95,301.725 421.3563,301.4594 Q420.7625,301.1781 420.1375,301.1781 Q418.7938,301.1781 418.1063,302.2563 Q417.4188,303.3188 417.4188,305.4125 Q417.4188,307.5063 418.1063,308.5844 Q418.7938,309.6469 420.1375,309.6469 Q420.7625,309.6469 421.3563,309.3813 Q421.95,309.1 422.575,308.5219 L422.575,311.2406 Z " fill="#000000"/><text fill="#000000" font-family="sans-serif" font-size="14" lengthAdjust="spacing" textLength="71.1279" x="440.1063" y="310.4467">Incidencia</text><line style="stroke:#181818;stroke-width:0.5;" x1="346.18" x2="572.6605" y1="321.6" y2="321.6"/><text fill="#000000" font-family="sans-serif" font-size="14" lengthAdjust="spacing" textLength="216.4805" x="351.18" y="338.5951">Tipo ="Fallo lector de tarjetas"</text><line style="stroke:#181818;stroke-width:0.5;" x1="346.18" x2="572.6605" y1="345.8969" y2="345.8969"/></g><!--class Tarifa--><g id="elem_Tarifa"><rect codeLine="16" fill="#F1F1F1" height="80.5938" id="Tarifa" rx="2.5" ry="2.5" style="stroke:#181818;stroke-width:0.5;" width="111.0117" x="161.92" y="430.89"/><ellipse cx="194.3474" cy="446.89" fill="#ADD1B2" rx="11" ry="11" style="stroke:#181818;stroke-width:1.0;"/><path d="M197.3161,452.5306 Q196.738,452.8275 196.0974,452.9681 Q195.4568,453.1244 194.7536,453.1244 Q192.2536,453.1244 190.9255,451.4838 Q189.613,449.8275 189.613,446.7025 Q189.613,443.5775 190.9255,441.9213 Q192.2536,440.265 194.7536,440.265 Q195.4568,440.265 196.0974,440.4213 Q196.7536,440.5775 197.3161,440.8744 L197.3161,443.5931 Q196.6911,443.015 196.0974,442.7494 Q195.5036,442.4681 194.8786,442.4681 Q193.5349,442.4681 192.8474,443.5463 Q192.1599,444.6088 192.1599,446.7025 Q192.1599,448.7963 192.8474,449.8744 Q193.5349,450.9369 194.8786,450.9369 Q195.5036,450.9369 196.0974,450.6713 Q196.6911,450.39 197.3161,449.8119 L197.3161,452.5306 Z " fill="#000000"/><text fill="#000000" font-family="sans-serif" font-size="14" lengthAdjust="spacing" textLength="40.2842" x="212.2201" y="451.7367">Tarifa</text><line style="stroke:#181818;stroke-width:0.5;" x1="162.92" x2="271.9317" y1="462.89" y2="462.89"/><text fill="#000000" font-family="sans-serif" font-size="14" lengthAdjust="spacing" textLength="99.0117" x="167.92" y="479.8851">Tipo = "Bono"</text><text fill="#000000" font-family="sans-serif" font-size="14" lengthAdjust="spacing" textLength="81.8535" x="167.92" y="496.182">precio = 5&#8364;</text><line style="stroke:#181818;stroke-width:0.5;" x1="162.92" x2="271.9317" y1="503.4838" y2="503.4838"/></g><!--class Servicio--><g id="elem_Servicio"><rect codeLine="20" fill="#F1F1F1" height="64.2969" id="Servicio" rx="2.5" ry="2.5" style="stroke:#181818;stroke-width:0.5;" width="122.1406" x="134.35" y="588.49"/><ellipse cx="164.9009" cy="604.49" fill="#ADD1B2" rx="11" ry="11" style="stroke:#181818;stroke-width:1.0;"/><path d="M167.8697,610.1306 Q167.2916,610.4275 166.6509,610.5681 Q166.0103,610.7244 165.3072,610.7244 Q162.8072,610.7244 161.4791,609.0838 Q160.1666,607.4275 160.1666,604.3025 Q160.1666,601.1775 161.4791,599.5213 Q162.8072,597.865 165.3072,597.865 Q166.0103,597.865 166.6509,598.0213 Q167.3072,598.1775 167.8697,598.4744 L167.8697,601.1931 Q167.2447,600.615 166.6509,600.3494 Q166.0572,600.0681 165.4322,600.0681 Q164.0884,600.0681 163.4009,601.1463 Q162.7134,602.2088 162.7134,604.3025 Q162.7134,606.3963 163.4009,607.4744 Q164.0884,608.5369 165.4322,608.5369 Q166.0572,608.5369 166.6509,608.2713 Q167.2447,607.99 167.8697,607.4119 L167.8697,610.1306 Z " fill="#000000"/><text fill="#000000" font-family="sans-serif" font-size="14" lengthAdjust="spacing" textLength="55.583" x="182.3567" y="609.3367">Servicio</text><line style="stroke:#181818;stroke-width:0.5;" x1="135.35" x2="255.4906" y1="620.49" y2="620.49"/><text fill="#000000" font-family="sans-serif" font-size="14" lengthAdjust="spacing" textLength="110.1406" x="140.35" y="637.4851">Tipo = "Diurno"</text><line style="stroke:#181818;stroke-width:0.5;" x1="135.35" x2="255.4906" y1="644.7869" y2="644.7869"/></g><!--class MetodoPago--><g id="elem_MetodoPago"><rect codeLine="23" fill="#F1F1F1" height="48" id="MetodoPago" rx="2.5" ry="2.5" style="stroke:#181818;stroke-width:0.5;" width="118.6729" x="291.08" y="596.63"/><ellipse cx="306.08" cy="612.63" fill="#A9DCDF" rx="11" ry="11" style="stroke:#181818;stroke-width:1.0;"/><path d="M306.1894,607.9738 L305.0331,613.0519 L307.3613,613.0519 L306.1894,607.9738 Z M304.705,605.7394 L307.6894,605.7394 L311.0488,618.13 L308.5956,618.13 L307.83,615.0675 L304.5488,615.0675 L303.7988,618.13 L301.3613,618.13 L304.705,605.7394 Z " fill="#000000"/><text fill="#000000" font-family="sans-serif" font-size="14" font-style="italic" lengthAdjust="spacing" textLength="86.6729" x="320.08" y="617.4767">MetodoPago</text><line style="stroke:#181818;stroke-width:0.5;" x1="292.08" x2="408.7529" y1="628.63" y2="628.63"/><line style="stroke:#181818;stroke-width:0.5;" x1="292.08" x2="408.7529" y1="636.63" y2="636.63"/></g><!--class Tarjeta--><g id="elem_Tarjeta"><rect codeLine="24" fill="#F1F1F1" height="48" id="Tarjeta" rx="2.5" ry="2.5" style="stroke:#181818;stroke-width:0.5;" width="81.458" x="272.69" y="737.93"/><ellipse cx="287.69" cy="753.93" fill="#ADD1B2" rx="11" ry="11" style="stroke:#181818;stroke-width:1.0;"/><path d="M290.6588,759.5706 Q290.0806,759.8675 289.44,760.0081 Q288.7994,760.1644 288.0963,760.1644 Q285.5963,760.1644 284.2681,758.5238 Q282.9556,756.8675 282.9556,753.7425 Q282.9556,750.6175 284.2681,748.9613 Q285.5963,747.305 288.0963,747.305 Q288.7994,747.305 289.44,747.4613 Q290.0963,747.6175 290.6588,747.9144 L290.6588,750.6331 Q290.0338,750.055 289.44,749.7894 Q288.8463,749.5081 288.2213,749.5081 Q286.8775,749.5081 286.19,750.5863 Q285.5025,751.6488 285.5025,753.7425 Q285.5025,755.8363 286.19,756.9144 Q286.8775,757.9769 288.2213,757.9769 Q288.8463,757.9769 289.44,757.7113 Q290.0338,757.43 290.6588,756.8519 L290.6588,759.5706 Z " fill="#000000"/><text fill="#000000" font-family="sans-serif" font-size="14" lengthAdjust="spacing" textLength="49.458" x="301.69" y="758.7767">Tarjeta</text><line style="stroke:#181818;stroke-width:0.5;" x1="273.69" x2="353.148" y1="769.93" y2="769.93"/><line style="stroke:#181818;stroke-width:0.5;" x1="273.69" x2="353.148" y1="777.93" y2="777.93"/></g><!--class Efectivo--><g id="elem_Efectivo"><rect codeLine="25" fill="#F1F1F1" height="48" id="Efectivo" rx="2.5" ry="2.5" style="stroke:#181818;stroke-width:0.5;" width="88.3145" x="389.26" y="737.93"/><ellipse cx="404.26" cy="753.93" fill="#ADD1B2" rx="11" ry="11" style="stroke:#181818;stroke-width:1.0;"/><path d="M407.2288,759.5706 Q406.6506,759.8675 406.01,760.0081 Q405.3694,760.1644 404.6663,760.1644 Q402.1663,760.1644 400.8381,758.5238 Q399.5256,756.8675 399.5256,753.7425 Q399.5256,750.6175 400.8381,748.9613 Q402.1663,747.305 404.6663,747.305 Q405.3694,747.305 406.01,747.4613 Q406.6663,747.6175 407.2288,747.9144 L407.2288,750.6331 Q406.6038,750.055 406.01,749.7894 Q405.4163,749.5081 404.7913,749.5081 Q403.4475,749.5081 402.76,750.5863 Q402.0725,751.6488 402.0725,753.7425 Q402.0725,755.8363 402.76,756.9144 Q403.4475,757.9769 404.7913,757.9769 Q405.4163,757.9769 406.01,757.7113 Q406.6038,757.43 407.2288,756.8519 L407.2288,759.5706 Z " fill="#000000"/><text fill="#000000" font-family="sans-serif" font-size="14" lengthAdjust="spacing" textLength="56.3145" x="418.26" y="758.7767">Efectivo</text><line style="stroke:#181818;stroke-width:0.5;" x1="390.26" x2="476.5745" y1="769.93" y2="769.93"/><line style="stroke:#181818;stroke-width:0.5;" x1="390.26" x2="476.5745" y1="777.93" y2="777.93"/></g><!--class Pasajero--><g id="elem_Pasajero"><rect codeLine="26" fill="#F1F1F1" height="64.2969" id="Pasajero" rx="2.5" ry="2.5" style="stroke:#181818;stroke-width:0.5;" width="113.4043" x="160.72" y="289.6"/><ellipse cx="185.4785" cy="305.6" fill="#ADD1B2" rx="11" ry="11" style="stroke:#181818;stroke-width:1.0;"/><path d="M188.4472,311.2406 Q187.8691,311.5375 187.2285,311.6781 Q186.5879,311.8344 185.8847,311.8344 Q183.3847,311.8344 182.0566,310.1938 Q180.7441,308.5375 180.7441,305.4125 Q180.7441,302.2875 182.0566,300.6313 Q183.3847,298.975 185.8847,298.975 Q186.5879,298.975 187.2285,299.1313 Q187.8847,299.2875 188.4472,299.5844 L188.4472,302.3031 Q187.8222,301.725 187.2285,301.4594 Q186.6347,301.1781 186.0097,301.1781 Q184.666,301.1781 183.9785,302.2563 Q183.291,303.3188 183.291,305.4125 Q183.291,307.5063 183.9785,308.5844 Q184.666,309.6469 186.0097,309.6469 Q186.6347,309.6469 187.2285,309.3813 Q187.8222,309.1 188.4472,308.5219 L188.4472,311.2406 Z " fill="#000000"/><text fill="#000000" font-family="sans-serif" font-size="14" lengthAdjust="spacing" textLength="59.7188" x="201.6471" y="310.4467">Pasajero</text><line style="stroke:#181818;stroke-width:0.5;" x1="161.72" x2="273.1243" y1="321.6" y2="321.6"/><text fill="#000000" font-family="sans-serif" font-size="14" lengthAdjust="spacing" textLength="101.4043" x="166.72" y="338.5951">Cantidad = 10</text><line style="stroke:#181818;stroke-width:0.5;" x1="161.72" x2="273.1243" y1="345.8969" y2="345.8969"/></g><!--link Veh?culo to Conductor--><g id="link_Veh&#237;culo_Conductor"><path codeLine="30" d="M228.98,65.29 C206.97,75.07 182.84,87.31 162.42,101.3 C143.08,114.55 128.2201,128.2168 113.4801,143.6068 " fill="none" id="Veh&#237;culo-to-Conductor" style="stroke:#181818;stroke-width:1.0;"/><polygon fill="#181818" points="109.33,147.94,118.444,144.207,112.7885,144.329,112.6664,138.6735,109.33,147.94" style="stroke:#181818;stroke-width:1.0;"/><text fill="#000000" font-family="sans-serif" font-size="13" lengthAdjust="spacing" textLength="35.7881" x="163.42" y="114.3669">Tiene</text></g><!--link Veh?culo to Empresa--><g id="link_Veh&#237;culo_Empresa"><path codeLine="31" d="M310.08,71.76 C321.37,94.56 333.8856,119.824 345.1656,142.584 " fill="none" id="Veh&#237;culo-to-Empresa" style="stroke:#181818;stroke-width:1.0;"/><polygon fill="#181818" points="347.83,147.96,347.4174,138.1198,345.6097,143.48,340.2495,141.6723,347.83,147.96" style="stroke:#181818;stroke-width:1.0;"/><text fill="#000000" font-family="sans-serif" font-size="13" lengthAdjust="spacing" textLength="65.6602" x="334.42" y="114.3669">Pertenece</text></g><!--link Empresa to Incidencia--><g id="link_Empresa_Incidencia"><path codeLine="32" d="M380.49,212.94 C388.73,227.46 399.07,244.74 409.42,259.6 C416.4,269.61 420.7611,275.414 428.4511,284.774 " fill="none" id="Empresa-to-Incidencia" style="stroke:#181818;stroke-width:1.0;"/><polygon fill="#181818" points="432.26,289.41,429.6374,279.9167,429.086,285.5467,423.456,284.9952,432.26,289.41" style="stroke:#181818;stroke-width:1.0;"/><text fill="#000000" font-family="sans-serif" font-size="13" lengthAdjust="spacing" textLength="57.7129" x="410.42" y="255.6669">Gestiona</text></g><!--link Conductor to Horario--><g id="link_Conductor_Horario"><path codeLine="33" d="M81.42,212.98 C81.42,241.21 81.42,283.74 81.42,320.74 C81.42,320.74 81.42,320.74 81.42,621.63 C81.42,659.35 90.8284,695.6894 99.9984,723.6194 " fill="none" id="Conductor-to-Horario" style="stroke:#181818;stroke-width:1.0;"/><polygon fill="#181818" points="101.87,729.32,102.863,719.5213,100.3103,724.5695,95.2621,722.0168,101.87,729.32" style="stroke:#181818;stroke-width:1.0;"/><text fill="#000000" font-family="sans-serif" font-size="13" lengthAdjust="spacing" textLength="36.353" x="82.42" y="475.7569">Sigue</text></g><!--link Conductor to Pasajero--><g id="link_Conductor_Pasajero"><path codeLine="34" d="M107.38,213.04 C119.72,227.58 134.92,244.85 149.42,259.6 C159.22,269.56 165.8547,275.8824 176.1947,285.1624 " fill="none" id="Conductor-to-Pasajero" style="stroke:#181818;stroke-width:1.0;"/><polygon fill="#181818" points="180.66,289.17,176.6337,280.1817,176.9389,285.8303,171.2903,286.1355,180.66,289.17" style="stroke:#181818;stroke-width:1.0;"/><text fill="#000000" font-family="sans-serif" font-size="13" lengthAdjust="spacing" textLength="48.3818" x="150.42" y="255.6669">Recoge</text></g><!--link Pasajero to Tarifa--><g id="link_Pasajero_Tarifa"><path codeLine="35" d="M217.42,354.37 C217.42,376.63 217.42,400.58 217.42,424.45 " fill="none" id="Pasajero-to-Tarifa" style="stroke:#181818;stroke-width:1.0;"/><polygon fill="#181818" points="217.42,430.45,221.42,421.45,217.42,425.45,213.42,421.45,217.42,430.45" style="stroke:#181818;stroke-width:1.0;"/><text fill="#000000" font-family="sans-serif" font-size="13" lengthAdjust="spacing" textLength="32.0239" x="218.42" y="396.9569">Paga</text></g><!--link Tarifa to Servicio--><g id="link_Tarifa_Servicio"><path codeLine="36" d="M211.53,511.7 C207.94,535.76 204.3064,560.1258 200.9664,582.4858 " fill="none" id="Tarifa-to-Servicio" style="stroke:#181818;stroke-width:1.0;"/><polygon fill="#181818" points="200.08,588.42,205.3657,580.1097,200.8187,583.4749,197.4535,578.9278,200.08,588.42" style="stroke:#181818;stroke-width:1.0;"/><text fill="#000000" font-family="sans-serif" font-size="13" lengthAdjust="spacing" textLength="58.7476" x="208.42" y="554.5569">Depende</text></g><!--link Tarifa to MetodoPago--><g id="link_Tarifa_MetodoPago"><path codeLine="37" d="M253.06,511.7 C277.38,538.66 304.7409,568.995 325.2109,591.685 " fill="none" id="Tarifa-to-MetodoPago" style="stroke:#181818;stroke-width:1.0;"/><polygon fill="#181818" points="329.23,596.14,326.1713,586.7781,325.8807,592.4275,320.2314,592.1369,329.23,596.14" style="stroke:#181818;stroke-width:1.0;"/><text fill="#000000" font-family="sans-serif" font-size="13" lengthAdjust="spacing" textLength="75.7148" x="293.42" y="554.5569">Pagada con</text></g><!--link Pasajero to Veh?culo--><g id="link_Pasajero_Veh&#237;culo"><path codeLine="38" d="M219.41,289.3 C222.25,254.27 228.85,196.24 243.42,148.3 C251.63,121.29 262.6939,97.7481 273.9039,76.6581 " fill="none" id="Pasajero-to-Veh&#237;culo" style="stroke:#181818;stroke-width:1.0;"/><polygon fill="#181818" points="276.72,71.36,268.9638,77.4297,274.3733,75.7751,276.0279,81.1845,276.72,71.36" style="stroke:#181818;stroke-width:1.0;"/><text fill="#000000" font-family="sans-serif" font-size="13" lengthAdjust="spacing" textLength="40.9805" x="244.42" y="185.0169">Suben</text></g><!--link Servicio to Horario--><g id="link_Servicio_Horario"><path codeLine="39" d="M176.81,653.24 C163.39,676.04 148.4048,701.51 134.9948,724.28 " fill="none" id="Servicio-to-Horario" style="stroke:#181818;stroke-width:1.0;"/><polygon fill="#181818" points="131.95,729.45,139.9639,723.7248,134.4873,725.1416,133.0705,719.6651,131.95,729.45" style="stroke:#181818;stroke-width:1.0;"/><text fill="#000000" font-family="sans-serif" font-size="13" lengthAdjust="spacing" textLength="99.9058" x="160.42" y="695.8469">Programado en</text></g><!--link Incidencia to Veh?culo--><g id="link_Incidencia_Veh&#237;culo"><path codeLine="40" d="M467.44,289.21 C469.49,279.75 471.4,269.31 472.42,259.6 C477.79,208.53 464.44,194.2 441.42,148.3 C429.98,125.48 427.52,118.23 408.42,101.3 C394.05,88.56 381.8581,80.3447 364.9381,71.2747 " fill="none" id="Incidencia-to-Veh&#237;culo" style="stroke:#181818;stroke-width:1.0;"/><polygon fill="#181818" points="359.65,68.44,365.6924,76.2175,364.0568,70.8023,369.472,69.1666,359.65,68.44" style="stroke:#181818;stroke-width:1.0;"/><text fill="#000000" font-family="sans-serif" font-size="13" lengthAdjust="spacing" textLength="70.6621" x="472.42" y="185.0169">Asociada a</text></g><!--reverse link MetodoPago to Tarjeta--><g id="link_MetodoPago_Tarjeta"><path codeLine="41" d="M339.6085,662.3466 C332.7785,688.0566 326.47,711.8 319.63,737.54 " fill="none" id="MetodoPago-backto-Tarjeta" style="stroke:#181818;stroke-width:1.0;"/><polygon fill="none" points="344.23,644.95,333.8096,660.8061,345.4074,663.8871,344.23,644.95" style="stroke:#181818;stroke-width:1.0;"/></g><!--reverse link MetodoPago to Efectivo--><g id="link_MetodoPago_Efectivo"><path codeLine="42" d="M373.524,660.4129 C388.844,686.1229 404.14,711.8 419.48,737.54 " fill="none" id="MetodoPago-backto-Efectivo" style="stroke:#181818;stroke-width:1.0;"/><polygon fill="none" points="364.31,644.95,368.3697,663.4843,378.6783,657.3416,364.31,644.95" style="stroke:#181818;stroke-width:1.0;"/></g><!--SRC=[NL91JiCm4Bpx5LOkd28L92uH89MM0WTGH2lkMtiRNBNUod5wWLxu3H9yW6j_majOft6IDZVlpCxCxaQje2pbAxxjVrIr8lak97_UR4XUosHOUPhlVyj4x8IgcIEokbAUNCEqj9uxhBbMk_rNZ_f03fo9aXE7gaAh30Jo23J8Yy5PnxvRRnoMqB2V6zbaLlKK7xbTrne7rgoEcKnWnSbNMCVIA3su9Ne8ZRBfd76IHHIVDTFTagMahh2rCg5s-VVvtTfDqMsDQYU8RMDJkT2u4p0llGFbvO7_X9uqvL1Gvng2n0aNdD1i8vX32KjqKNq4rXiDcXtE1wmjkfkawKrlxna7GOidU5nV9dDqdd658jO2tgsEAVTOUaCMHASQEF5WcPoQei8JjCsRoHTKLA1eAm5kDip-K81eNW5ejvZ9CMxGQkoZtSwQLlul5DbZxMvKZbRDqOfMz3XtxgXmi0PDaaczcKzLXYLncRr0z19SVQHfUxJJUZpVFm00]--></g></svg>