<svg xmlns="http://www.w3.org/2000/svg" xmlns:xlink="http://www.w3.org/1999/xlink" contentStyleType="text/css" height="1020px" preserveAspectRatio="none" style="width:482px;height:1020px;background:#FFFFFF;" version="1.1" viewBox="0 0 482 1020" width="482px" zoomAndPan="magnify"><defs/><g><ellipse cx="295.91" cy="16" fill="#222222" rx="10" ry="10" style="stroke:#222222;stroke-width:1.0;"/><g id="InicioDelDia"><rect fill="#F1F1F1" height="50" rx="12.5" ry="12.5" style="stroke:#181818;stroke-width:0.5;" width="103.5762" x="244.12" y="103"/><line style="stroke:#181818;stroke-width:0.5;" x1="244.12" x2="347.6962" y1="129.2969" y2="129.2969"/><text fill="#000000" font-family="sans-serif" font-size="14" lengthAdjust="spacing" textLength="83.5762" x="254.12" y="120.9951">InicioDelDia</text></g><g id="InicioRuta"><rect fill="#F1F1F1" height="50" rx="12.5" ry="12.5" style="stroke:#181818;stroke-width:0.5;" width="89.7129" x="251.05" y="230"/><line style="stroke:#181818;stroke-width:0.5;" x1="251.05" x2="340.7629" y1="256.2969" y2="256.2969"/><text fill="#000000" font-family="sans-serif" font-size="14" lengthAdjust="spacing" textLength="69.7129" x="261.05" y="247.9951">InicioRuta</text></g><g id="Parada"><rect fill="#F1F1F1" height="50" rx="12.5" ry="12.5" style="stroke:#181818;stroke-width:0.5;" width="68.8223" x="174.5" y="357"/><line style="stroke:#181818;stroke-width:0.5;" x1="174.5" x2="243.3223" y1="383.2969" y2="383.2969"/><text fill="#000000" font-family="sans-serif" font-size="14" lengthAdjust="spacing" textLength="48.8223" x="184.5" y="374.9951">Parada</text></g><g id="RecogePasajero"><rect fill="#F1F1F1" height="50" rx="12.5" ry="12.5" style="stroke:#181818;stroke-width:0.5;" width="131.8223" x="7" y="484"/><line style="stroke:#181818;stroke-width:0.5;" x1="7" x2="138.8223" y1="510.2969" y2="510.2969"/><text fill="#000000" font-family="sans-serif" font-size="14" lengthAdjust="spacing" textLength="111.8223" x="17" y="501.9951">RecogePasajero</text></g><g id="SigueRuta"><rect fill="#F1F1F1" height="50" rx="12.5" ry="12.5" style="stroke:#181818;stroke-width:0.5;" width="91.8184" x="163" y="611"/><line style="stroke:#181818;stroke-width:0.5;" x1="163" x2="254.8184" y1="637.2969" y2="637.2969"/><text fill="#000000" font-family="sans-serif" font-size="14" lengthAdjust="spacing" textLength="71.8184" x="173" y="628.9951">SigueRuta</text></g><g id="FinRuta"><rect fill="#F1F1F1" height="50" rx="12.5" ry="12.5" style="stroke:#181818;stroke-width:0.5;" width="73.4844" x="259.17" y="738"/><line style="stroke:#181818;stroke-width:0.5;" x1="259.17" x2="332.6544" y1="764.2969" y2="764.2969"/><text fill="#000000" font-family="sans-serif" font-size="14" lengthAdjust="spacing" textLength="53.4844" x="269.17" y="755.9951">FinRuta</text></g><g id="FinDelDia"><rect fill="#F1F1F1" height="50" rx="12.5" ry="12.5" style="stroke:#181818;stroke-width:0.5;" width="87.3477" x="252.24" y="865"/><line style="stroke:#181818;stroke-width:0.5;" x1="252.24" x2="339.5877" y1="891.2969" y2="891.2969"/><text fill="#000000" font-family="sans-serif" font-size="14" lengthAdjust="spacing" textLength="67.3477" x="262.24" y="882.9951">FinDelDia</text></g><ellipse cx="295.91" cy="1003" fill="none" rx="11" ry="11" style="stroke:#222222;stroke-width:1.0;"/><ellipse cx="295.91" cy="1003" fill="#222222" rx="6" ry="6" style="stroke:#222222;stroke-width:1.0;"/><!--link *start* to InicioDelDia--><g id="link_*start*_InicioDelDia"><path d="M295.91,26.38 C295.91,43.11 295.91,72.59 295.91,96.63 " fill="none" id="*start*-to-InicioDelDia" style="stroke:#181818;stroke-width:1.0;"/><polygon fill="#181818" points="295.91,102.63,299.91,93.63,295.91,97.63,291.91,93.63,295.91,102.63" style="stroke:#181818;stroke-width:1.0;"/><text fill="#000000" font-family="sans-serif" font-size="13" lengthAdjust="spacing" textLength="104.0381" x="296.91" y="69.0669">Comienza el d&#237;a</text></g><!--link InicioDelDia to InicioRuta--><g id="link_InicioDelDia_InicioRuta"><path d="M295.91,153.4 C295.91,175.42 295.91,201.66 295.91,223.66 " fill="none" id="InicioDelDia-to-InicioRuta" style="stroke:#181818;stroke-width:1.0;"/><polygon fill="#181818" points="295.91,229.66,299.91,220.66,295.91,224.66,291.91,220.66,295.91,229.66" style="stroke:#181818;stroke-width:1.0;"/><text fill="#000000" font-family="sans-serif" font-size="13" lengthAdjust="spacing" textLength="74.2231" x="296.91" y="196.0669">Iniciar Ruta</text></g><!--link InicioRuta to Parada--><g id="link_InicioRuta_Parada"><path d="M276.17,280.36 C268.96,289.51 260.88,300.09 253.91,310 C243.25,325.16 235.2342,337.6398 226.6942,351.5198 " fill="none" id="InicioRuta-to-Parada" style="stroke:#181818;stroke-width:1.0;"/><polygon fill="#181818" points="223.55,356.63,231.6731,351.0608,226.1701,352.3715,224.8595,346.8686,223.55,356.63" style="stroke:#181818;stroke-width:1.0;"/><text fill="#000000" font-family="sans-serif" font-size="13" lengthAdjust="spacing" textLength="101.9814" x="254.91" y="323.0669">Llegar a Parada</text></g><!--link Parada to RecogePasajero--><g id="link_Parada_RecogePasajero"><path d="M174.21,390.27 C147.64,397.63 112.05,411.65 90.91,437 C80.08,449.99 76.3564,462.6917 74.5864,477.6217 " fill="none" id="Parada-to-RecogePasajero" style="stroke:#181818;stroke-width:1.0;"/><polygon fill="#181818" points="73.88,483.58,78.9117,475.1135,74.4686,478.6148,70.9674,474.1717,73.88,483.58" style="stroke:#181818;stroke-width:1.0;"/><text fill="#000000" font-family="sans-serif" font-size="13" lengthAdjust="spacing" textLength="90.8477" x="91.91" y="450.0669">Pasajero sube</text></g><!--link RecogePasajero to SigueRuta--><g id="link_RecogePasajero_SigueRuta"><path d="M84.63,534.39 C92.56,549.12 104.09,567.58 117.91,581 C130.96,593.67 142.2894,601.6805 157.6994,610.3405 " fill="none" id="RecogePasajero-to-SigueRuta" style="stroke:#181818;stroke-width:1.0;"/><polygon fill="#181818" points="162.93,613.28,157.0437,605.3837,158.5711,610.8304,153.1244,612.3579,162.93,613.28" style="stroke:#181818;stroke-width:1.0;"/><text fill="#000000" font-family="sans-serif" font-size="13" lengthAdjust="spacing" textLength="63.7686" x="118.91" y="577.0669">Continuar</text></g><!--link SigueRuta to Parada--><g id="link_SigueRuta_Parada"><path d="M208.91,610.54 C208.91,562.25 208.91,461.21 208.91,413.16 " fill="none" id="SigueRuta-to-Parada" style="stroke:#181818;stroke-width:1.0;"/><polygon fill="#181818" points="208.91,407.16,204.91,416.16,208.91,412.16,212.91,416.16,208.91,407.16" style="stroke:#181818;stroke-width:1.0;"/><text fill="#000000" font-family="sans-serif" font-size="13" lengthAdjust="spacing" textLength="102.9526" x="209.91" y="513.5669">Pr&#243;xima parada</text></g><!--link SigueRuta to FinRuta--><g id="link_SigueRuta_FinRuta"><path d="M225.89,661.4 C241.22,683.42 260.2328,710.7352 275.5428,732.7352 " fill="none" id="SigueRuta-to-FinRuta" style="stroke:#181818;stroke-width:1.0;"/><polygon fill="#181818" points="278.97,737.66,277.1124,727.9879,276.114,733.556,270.5459,732.5576,278.97,737.66" style="stroke:#181818;stroke-width:1.0;"/><text fill="#000000" font-family="sans-serif" font-size="13" lengthAdjust="spacing" textLength="93.5771" x="257.91" y="704.0669">Terminar Ruta</text></g><!--link FinRuta to InicioRuta--><g id="link_FinRuta_InicioRuta"><path d="M331.87,737.58 C342.09,729.2 352.45,719.1 359.91,708 C378.41,680.47 382.91,670.17 382.91,637 C382.91,381 382.91,381 382.91,381 C382.91,347.96 379.26,337.47 360.91,310 C353.41,298.78 347.5785,292.419 337.1985,284.039 " fill="none" id="FinRuta-to-InicioRuta" style="stroke:#181818;stroke-width:1.0;"/><polygon fill="#181818" points="332.53,280.27,337.0201,289.0358,336.4204,283.4108,342.0454,282.8111,332.53,280.27" style="stroke:#181818;stroke-width:1.0;"/><text fill="#000000" font-family="sans-serif" font-size="13" lengthAdjust="spacing" textLength="91.0317" x="383.91" y="513.5669">Reiniciar Ruta</text></g><!--link FinRuta to FinDelDia--><g id="link_FinRuta_FinDelDia"><path d="M295.91,788.4 C295.91,810.42 295.91,836.66 295.91,858.66 " fill="none" id="FinRuta-to-FinDelDia" style="stroke:#181818;stroke-width:1.0;"/><polygon fill="#181818" points="295.91,864.66,299.91,855.66,295.91,859.66,291.91,855.66,295.91,864.66" style="stroke:#181818;stroke-width:1.0;"/><text fill="#000000" font-family="sans-serif" font-size="13" lengthAdjust="spacing" textLength="93.4692" x="296.91" y="831.0669">Termina el d&#237;a</text></g><!--link FinDelDia to *end*--><g id="link_FinDelDia_*end*"><path d="M295.91,915.36 C295.91,939.23 295.91,968.46 295.91,985.71 " fill="none" id="FinDelDia-to-*end*" style="stroke:#181818;stroke-width:1.0;"/><polygon fill="#181818" points="295.91,991.71,299.91,982.71,295.91,986.71,291.91,982.71,295.91,991.71" style="stroke:#181818;stroke-width:1.0;"/><text fill="#000000" font-family="sans-serif" font-size="13" lengthAdjust="spacing" textLength="78.8633" x="296.91" y="958.0669">Final del d&#237;a</text></g><!--SRC=[PP1D3e9038NtSugkJRW02pSG4nCN1DqH5nKQKWCpPe34U2TN7e6BESNXrrtxtjU-jDdk2a6mXwFcd4rCLSm88KIcPj8l1AgWwD-er0gO9zAk5Nveq8Aq8pjOGYPeiH3gL57f8FIAyeOmAUMcf0GRl9CrZftAfhkHsjWoSUQo8nyV6Tsoxj2gMLqb9xR_FBb6UFoIDzo1jTzq8Lkp7YyPzRzxK-BbnKlErTCR_RRfYxCdPEP-7mgFplR85m00]--></g></svg>