<svg xmlns="http://www.w3.org/2000/svg" xmlns:xlink="http://www.w3.org/1999/xlink" contentStyleType="text/css" height="562px" preserveAspectRatio="none" style="width:459px;height:562px;background:#FFFFFF;" version="1.1" viewBox="0 0 459 562" width="459px" zoomAndPan="magnify"><defs/><g><!--class Veh?culo--><g id="elem_Veh&#237;culo"><rect codeLine="1" fill="#F1F1F1" height="48" id="Veh&#237;culo" rx="2.5" ry="2.5" style="stroke:#181818;stroke-width:0.5;" width="91.9785" x="163.57" y="7"/><ellipse cx="178.57" cy="23" fill="#ADD1B2" rx="11" ry="11" style="stroke:#181818;stroke-width:1.0;"/><path d="M181.5388,28.6406 Q180.9606,28.9375 180.32,29.0781 Q179.6794,29.2344 178.9763,29.2344 Q176.4763,29.2344 175.1481,27.5938 Q173.8356,25.9375 173.8356,22.8125 Q173.8356,19.6875 175.1481,18.0313 Q176.4763,16.375 178.9763,16.375 Q179.6794,16.375 180.32,16.5313 Q180.9763,16.6875 181.5388,16.9844 L181.5388,19.7031 Q180.9138,19.125 180.32,18.8594 Q179.7263,18.5781 179.1013,18.5781 Q177.7575,18.5781 177.07,19.6563 Q176.3825,20.7188 176.3825,22.8125 Q176.3825,24.9063 177.07,25.9844 Q177.7575,27.0469 179.1013,27.0469 Q179.7263,27.0469 180.32,26.7813 Q180.9138,26.5 181.5388,25.9219 L181.5388,28.6406 Z " fill="#000000"/><text fill="#000000" font-family="sans-serif" font-size="14" lengthAdjust="spacing" textLength="59.9785" x="192.57" y="27.8467">Veh&#237;culo</text><line style="stroke:#181818;stroke-width:0.5;" x1="164.57" x2="254.5485" y1="39" y2="39"/><line style="stroke:#181818;stroke-width:0.5;" x1="164.57" x2="254.5485" y1="47" y2="47"/></g><!--class Conductor--><g id="elem_Conductor"><rect codeLine="2" fill="#F1F1F1" height="48" id="Conductor" rx="2.5" ry="2.5" style="stroke:#181818;stroke-width:0.5;" width="104.4814" x="157.32" y="132"/><ellipse cx="172.32" cy="148" fill="#ADD1B2" rx="11" ry="11" style="stroke:#181818;stroke-width:1.0;"/><path d="M175.2888,153.6406 Q174.7106,153.9375 174.07,154.0781 Q173.4294,154.2344 172.7263,154.2344 Q170.2263,154.2344 168.8981,152.5938 Q167.5856,150.9375 167.5856,147.8125 Q167.5856,144.6875 168.8981,143.0313 Q170.2263,141.375 172.7263,141.375 Q173.4294,141.375 174.07,141.5313 Q174.7263,141.6875 175.2888,141.9844 L175.2888,144.7031 Q174.6638,144.125 174.07,143.8594 Q173.4763,143.5781 172.8513,143.5781 Q171.5075,143.5781 170.82,144.6563 Q170.1325,145.7188 170.1325,147.8125 Q170.1325,149.9063 170.82,150.9844 Q171.5075,152.0469 172.8513,152.0469 Q173.4763,152.0469 174.07,151.7813 Q174.6638,151.5 175.2888,150.9219 L175.2888,153.6406 Z " fill="#000000"/><text fill="#000000" font-family="sans-serif" font-size="14" lengthAdjust="spacing" textLength="72.4814" x="186.32" y="152.8467">Conductor</text><line style="stroke:#181818;stroke-width:0.5;" x1="158.32" x2="260.8014" y1="164" y2="164"/><line style="stroke:#181818;stroke-width:0.5;" x1="158.32" x2="260.8014" y1="172" y2="172"/></g><!--class Horario--><g id="elem_Horario"><rect codeLine="3" fill="#F1F1F1" height="48" id="Horario" rx="2.5" ry="2.5" style="stroke:#181818;stroke-width:0.5;" width="83.6387" x="144.74" y="257"/><ellipse cx="159.74" cy="273" fill="#ADD1B2" rx="11" ry="11" style="stroke:#181818;stroke-width:1.0;"/><path d="M162.7088,278.6406 Q162.1306,278.9375 161.49,279.0781 Q160.8494,279.2344 160.1463,279.2344 Q157.6463,279.2344 156.3181,277.5938 Q155.0056,275.9375 155.0056,272.8125 Q155.0056,269.6875 156.3181,268.0313 Q157.6463,266.375 160.1463,266.375 Q160.8494,266.375 161.49,266.5313 Q162.1463,266.6875 162.7088,266.9844 L162.7088,269.7031 Q162.0838,269.125 161.49,268.8594 Q160.8963,268.5781 160.2713,268.5781 Q158.9275,268.5781 158.24,269.6563 Q157.5525,270.7188 157.5525,272.8125 Q157.5525,274.9063 158.24,275.9844 Q158.9275,277.0469 160.2713,277.0469 Q160.8963,277.0469 161.49,276.7813 Q162.0838,276.5 162.7088,275.9219 L162.7088,278.6406 Z " fill="#000000"/><text fill="#000000" font-family="sans-serif" font-size="14" lengthAdjust="spacing" textLength="51.6387" x="173.74" y="277.8467">Horario</text><line style="stroke:#181818;stroke-width:0.5;" x1="145.74" x2="227.3787" y1="289" y2="289"/><line style="stroke:#181818;stroke-width:0.5;" x1="145.74" x2="227.3787" y1="297" y2="297"/></g><!--class Empresa--><g id="elem_Empresa"><rect codeLine="4" fill="#F1F1F1" height="48" id="Empresa" rx="2.5" ry="2.5" style="stroke:#181818;stroke-width:0.5;" width="93.6123" x="17.76" y="132"/><ellipse cx="32.76" cy="148" fill="#ADD1B2" rx="11" ry="11" style="stroke:#181818;stroke-width:1.0;"/><path d="M35.7288,153.6406 Q35.1506,153.9375 34.51,154.0781 Q33.8694,154.2344 33.1663,154.2344 Q30.6662,154.2344 29.3381,152.5938 Q28.0256,150.9375 28.0256,147.8125 Q28.0256,144.6875 29.3381,143.0313 Q30.6662,141.375 33.1663,141.375 Q33.8694,141.375 34.51,141.5313 Q35.1663,141.6875 35.7288,141.9844 L35.7288,144.7031 Q35.1038,144.125 34.51,143.8594 Q33.9163,143.5781 33.2913,143.5781 Q31.9475,143.5781 31.26,144.6563 Q30.5725,145.7188 30.5725,147.8125 Q30.5725,149.9063 31.26,150.9844 Q31.9475,152.0469 33.2913,152.0469 Q33.9163,152.0469 34.51,151.7813 Q35.1038,151.5 35.7288,150.9219 L35.7288,153.6406 Z " fill="#000000"/><text fill="#000000" font-family="sans-serif" font-size="14" lengthAdjust="spacing" textLength="61.6123" x="46.76" y="152.8467">Empresa</text><line style="stroke:#181818;stroke-width:0.5;" x1="18.76" x2="110.3723" y1="164" y2="164"/><line style="stroke:#181818;stroke-width:0.5;" x1="18.76" x2="110.3723" y1="172" y2="172"/></g><!--class Incidencia--><g id="elem_Incidencia"><rect codeLine="5" fill="#F1F1F1" height="48" id="Incidencia" rx="2.5" ry="2.5" style="stroke:#181818;stroke-width:0.5;" width="103.1279" x="7" y="257"/><ellipse cx="22" cy="273" fill="#ADD1B2" rx="11" ry="11" style="stroke:#181818;stroke-width:1.0;"/><path d="M24.9688,278.6406 Q24.3906,278.9375 23.75,279.0781 Q23.1094,279.2344 22.4063,279.2344 Q19.9063,279.2344 18.5781,277.5938 Q17.2656,275.9375 17.2656,272.8125 Q17.2656,269.6875 18.5781,268.0313 Q19.9063,266.375 22.4063,266.375 Q23.1094,266.375 23.75,266.5313 Q24.4063,266.6875 24.9688,266.9844 L24.9688,269.7031 Q24.3438,269.125 23.75,268.8594 Q23.1563,268.5781 22.5313,268.5781 Q21.1875,268.5781 20.5,269.6563 Q19.8125,270.7188 19.8125,272.8125 Q19.8125,274.9063 20.5,275.9844 Q21.1875,277.0469 22.5313,277.0469 Q23.1563,277.0469 23.75,276.7813 Q24.3438,276.5 24.9688,275.9219 L24.9688,278.6406 Z " fill="#000000"/><text fill="#000000" font-family="sans-serif" font-size="14" lengthAdjust="spacing" textLength="71.1279" x="36" y="277.8467">Incidencia</text><line style="stroke:#181818;stroke-width:0.5;" x1="8" x2="109.1279" y1="289" y2="289"/><line style="stroke:#181818;stroke-width:0.5;" x1="8" x2="109.1279" y1="297" y2="297"/></g><!--class Tarifa--><g id="elem_Tarifa"><rect codeLine="6" fill="#F1F1F1" height="48" id="Tarifa" rx="2.5" ry="2.5" style="stroke:#181818;stroke-width:0.5;" width="72.2842" x="288.42" y="382"/><ellipse cx="303.42" cy="398" fill="#ADD1B2" rx="11" ry="11" style="stroke:#181818;stroke-width:1.0;"/><path d="M306.3888,403.6406 Q305.8106,403.9375 305.17,404.0781 Q304.5294,404.2344 303.8263,404.2344 Q301.3263,404.2344 299.9981,402.5938 Q298.6856,400.9375 298.6856,397.8125 Q298.6856,394.6875 299.9981,393.0313 Q301.3263,391.375 303.8263,391.375 Q304.5294,391.375 305.17,391.5313 Q305.8263,391.6875 306.3888,391.9844 L306.3888,394.7031 Q305.7638,394.125 305.17,393.8594 Q304.5763,393.5781 303.9513,393.5781 Q302.6075,393.5781 301.92,394.6563 Q301.2325,395.7188 301.2325,397.8125 Q301.2325,399.9063 301.92,400.9844 Q302.6075,402.0469 303.9513,402.0469 Q304.5763,402.0469 305.17,401.7813 Q305.7638,401.5 306.3888,400.9219 L306.3888,403.6406 Z " fill="#000000"/><text fill="#000000" font-family="sans-serif" font-size="14" lengthAdjust="spacing" textLength="40.2842" x="317.42" y="402.8467">Tarifa</text><line style="stroke:#181818;stroke-width:0.5;" x1="289.42" x2="359.7042" y1="414" y2="414"/><line style="stroke:#181818;stroke-width:0.5;" x1="289.42" x2="359.7042" y1="422" y2="422"/></g><!--class Servicio--><g id="elem_Servicio"><rect codeLine="7" fill="#F1F1F1" height="48" id="Servicio" rx="2.5" ry="2.5" style="stroke:#181818;stroke-width:0.5;" width="87.583" x="211.77" y="507"/><ellipse cx="226.77" cy="523" fill="#ADD1B2" rx="11" ry="11" style="stroke:#181818;stroke-width:1.0;"/><path d="M229.7388,528.6406 Q229.1606,528.9375 228.52,529.0781 Q227.8794,529.2344 227.1763,529.2344 Q224.6763,529.2344 223.3481,527.5938 Q222.0356,525.9375 222.0356,522.8125 Q222.0356,519.6875 223.3481,518.0313 Q224.6763,516.375 227.1763,516.375 Q227.8794,516.375 228.52,516.5313 Q229.1763,516.6875 229.7388,516.9844 L229.7388,519.7031 Q229.1138,519.125 228.52,518.8594 Q227.9263,518.5781 227.3013,518.5781 Q225.9575,518.5781 225.27,519.6563 Q224.5825,520.7188 224.5825,522.8125 Q224.5825,524.9063 225.27,525.9844 Q225.9575,527.0469 227.3013,527.0469 Q227.9263,527.0469 228.52,526.7813 Q229.1138,526.5 229.7388,525.9219 L229.7388,528.6406 Z " fill="#000000"/><text fill="#000000" font-family="sans-serif" font-size="14" lengthAdjust="spacing" textLength="55.583" x="240.77" y="527.8467">Servicio</text><line style="stroke:#181818;stroke-width:0.5;" x1="212.77" x2="298.353" y1="539" y2="539"/><line style="stroke:#181818;stroke-width:0.5;" x1="212.77" x2="298.353" y1="547" y2="547"/></g><!--class MetodoPago--><g id="elem_MetodoPago"><rect codeLine="8" fill="#F1F1F1" height="48" id="MetodoPago" rx="2.5" ry="2.5" style="stroke:#181818;stroke-width:0.5;" width="118.6729" x="334.23" y="507"/><ellipse cx="349.23" cy="523" fill="#ADD1B2" rx="11" ry="11" style="stroke:#181818;stroke-width:1.0;"/><path d="M352.1988,528.6406 Q351.6206,528.9375 350.98,529.0781 Q350.3394,529.2344 349.6363,529.2344 Q347.1363,529.2344 345.8081,527.5938 Q344.4956,525.9375 344.4956,522.8125 Q344.4956,519.6875 345.8081,518.0313 Q347.1363,516.375 349.6363,516.375 Q350.3394,516.375 350.98,516.5313 Q351.6363,516.6875 352.1988,516.9844 L352.1988,519.7031 Q351.5738,519.125 350.98,518.8594 Q350.3863,518.5781 349.7613,518.5781 Q348.4175,518.5781 347.73,519.6563 Q347.0425,520.7188 347.0425,522.8125 Q347.0425,524.9063 347.73,525.9844 Q348.4175,527.0469 349.7613,527.0469 Q350.3863,527.0469 350.98,526.7813 Q351.5738,526.5 352.1988,525.9219 L352.1988,528.6406 Z " fill="#000000"/><text fill="#000000" font-family="sans-serif" font-size="14" lengthAdjust="spacing" textLength="86.6729" x="363.23" y="527.8467">MetodoPago</text><line style="stroke:#181818;stroke-width:0.5;" x1="335.23" x2="451.9029" y1="539" y2="539"/><line style="stroke:#181818;stroke-width:0.5;" x1="335.23" x2="451.9029" y1="547" y2="547"/></g><!--class Pasajeros--><g id="elem_Pasajeros"><rect fill="#F1F1F1" height="48" id="Pasajeros" rx="2.5" ry="2.5" style="stroke:#181818;stroke-width:0.5;" width="99.0127" x="275.06" y="257"/><ellipse cx="290.06" cy="273" fill="#ADD1B2" rx="11" ry="11" style="stroke:#181818;stroke-width:1.0;"/><path d="M293.0288,278.6406 Q292.4506,278.9375 291.81,279.0781 Q291.1694,279.2344 290.4663,279.2344 Q287.9663,279.2344 286.6381,277.5938 Q285.3256,275.9375 285.3256,272.8125 Q285.3256,269.6875 286.6381,268.0313 Q287.9663,266.375 290.4663,266.375 Q291.1694,266.375 291.81,266.5313 Q292.4663,266.6875 293.0288,266.9844 L293.0288,269.7031 Q292.4038,269.125 291.81,268.8594 Q291.2163,268.5781 290.5913,268.5781 Q289.2475,268.5781 288.56,269.6563 Q287.8725,270.7188 287.8725,272.8125 Q287.8725,274.9063 288.56,275.9844 Q289.2475,277.0469 290.5913,277.0469 Q291.2163,277.0469 291.81,276.7813 Q292.4038,276.5 293.0288,275.9219 L293.0288,278.6406 Z " fill="#000000"/><text fill="#000000" font-family="sans-serif" font-size="14" lengthAdjust="spacing" textLength="67.0127" x="304.06" y="277.8467">Pasajeros</text><line style="stroke:#181818;stroke-width:0.5;" x1="276.06" x2="373.0727" y1="289" y2="289"/><line style="stroke:#181818;stroke-width:0.5;" x1="276.06" x2="373.0727" y1="297" y2="297"/></g><!--link Veh?culo to Conductor--><g id="link_Veh&#237;culo_Conductor"><path codeLine="10" d="M209.56,55.42 C209.56,77.31 209.56,103.8 209.56,125.66 " fill="none" id="Veh&#237;culo-to-Conductor" style="stroke:#181818;stroke-width:1.0;"/><polygon fill="#181818" points="209.56,131.66,213.56,122.66,209.56,126.66,205.56,122.66,209.56,131.66" style="stroke:#181818;stroke-width:1.0;"/><text fill="#000000" font-family="sans-serif" font-size="13" lengthAdjust="spacing" textLength="35.7881" x="210.56" y="98.0669">Tiene</text></g><!--link Veh?culo to Empresa--><g id="link_Veh&#237;culo_Empresa"><path codeLine="11" d="M173.92,55.35 C161.15,64.18 146.88,74.62 134.56,85 C117.35,99.51 103.5518,113.1493 90.1518,127.2593 " fill="none" id="Veh&#237;culo-to-Empresa" style="stroke:#181818;stroke-width:1.0;"/><polygon fill="#181818" points="86.02,131.61,95.1181,127.8385,89.4631,127.9844,89.3172,122.3295,86.02,131.61" style="stroke:#181818;stroke-width:1.0;"/><text fill="#000000" font-family="sans-serif" font-size="13" lengthAdjust="spacing" textLength="65.6602" x="135.56" y="98.0669">Pertenece</text></g><!--link Empresa to Incidencia--><g id="link_Empresa_Incidencia"><path codeLine="12" d="M63.42,180.42 C62.35,202.31 61.0633,228.8072 59.9933,250.6672 " fill="none" id="Empresa-to-Incidencia" style="stroke:#181818;stroke-width:1.0;"/><polygon fill="#181818" points="59.7,256.66,64.1352,247.8663,59.9444,251.666,56.1448,247.4752,59.7,256.66" style="stroke:#181818;stroke-width:1.0;"/><text fill="#000000" font-family="sans-serif" font-size="13" lengthAdjust="spacing" textLength="57.7129" x="63.56" y="223.0669">Gestiona</text></g><!--link Conductor to Horario--><g id="link_Conductor_Horario"><path codeLine="13" d="M195.22,180.41 C190.53,189.33 185.93,199.82 183.56,210 C180.02,225.29 180.0956,236.9827 181.7456,250.7427 " fill="none" id="Conductor-to-Horario" style="stroke:#181818;stroke-width:1.0;"/><polygon fill="#181818" points="182.46,256.7,185.36,247.2878,181.8647,251.7356,177.4169,248.2403,182.46,256.7" style="stroke:#181818;stroke-width:1.0;"/><text fill="#000000" font-family="sans-serif" font-size="13" lengthAdjust="spacing" textLength="36.353" x="184.56" y="223.0669">Sigue</text></g><!--link Conductor to Pasajeros--><g id="link_Conductor_Pasajeros"><path codeLine="14" d="M224.93,180.44 C234.67,194.57 247.97,212.56 261.56,227 C271.36,237.41 278.4813,243.9644 289.1713,252.7344 " fill="none" id="Conductor-to-Pasajeros" style="stroke:#181818;stroke-width:1.0;"/><polygon fill="#181818" points="293.81,256.54,289.389,247.7392,289.9444,253.3687,284.3149,253.9241,293.81,256.54" style="stroke:#181818;stroke-width:1.0;"/><text fill="#000000" font-family="sans-serif" font-size="13" lengthAdjust="spacing" textLength="48.3818" x="262.56" y="223.0669">Recoge</text></g><!--link Pasajeros to Tarifa--><g id="link_Pasajeros_Tarifa"><path codeLine="15" d="M324.56,305.42 C324.56,327.31 324.56,353.8 324.56,375.66 " fill="none" id="Pasajeros-to-Tarifa" style="stroke:#181818;stroke-width:1.0;"/><polygon fill="#181818" points="324.56,381.66,328.56,372.66,324.56,376.66,320.56,372.66,324.56,381.66" style="stroke:#181818;stroke-width:1.0;"/><text fill="#000000" font-family="sans-serif" font-size="13" lengthAdjust="spacing" textLength="32.0239" x="325.56" y="348.0669">Paga</text></g><!--link Tarifa to Servicio--><g id="link_Tarifa_Servicio"><path codeLine="16" d="M308.78,430.41 C302.85,439.52 296.18,450.12 290.56,460 C281.9,475.24 275.6797,487.4825 269.0597,501.2525 " fill="none" id="Tarifa-to-Servicio" style="stroke:#181818;stroke-width:1.0;"/><polygon fill="#181818" points="266.46,506.66,273.9646,500.2818,268.6264,502.1537,266.7545,496.8155,266.46,506.66" style="stroke:#181818;stroke-width:1.0;"/><text fill="#000000" font-family="sans-serif" font-size="13" lengthAdjust="spacing" textLength="58.7476" x="291.56" y="473.0669">Depende</text></g><!--link Tarifa to MetodoPago--><g id="link_Tarifa_MetodoPago"><path codeLine="17" d="M337.89,430.46 C343.1,439.66 349.13,450.32 354.56,460 C363.28,475.53 370.1135,487.7865 377.6835,501.3965 " fill="none" id="Tarifa-to-MetodoPago" style="stroke:#181818;stroke-width:1.0;"/><polygon fill="#181818" points="380.6,506.64,379.7209,496.8305,378.1696,502.2704,372.7296,500.7191,380.6,506.64" style="stroke:#181818;stroke-width:1.0;"/><text fill="#000000" font-family="sans-serif" font-size="13" lengthAdjust="spacing" textLength="75.7148" x="363.56" y="473.0669">Pagada con</text></g><!--link Pasajeros to Veh?culo--><g id="link_Pasajeros_Veh&#237;culo"><path codeLine="18" d="M323.34,256.63 C322.19,242.85 319.93,225.19 315.56,210 C298.47,150.59 289.28,136.15 254.56,85 C247.65,74.81 243.0413,68.8539 235.2613,59.9239 " fill="none" id="Pasajeros-to-Veh&#237;culo" style="stroke:#181818;stroke-width:1.0;"/><polygon fill="#181818" points="231.32,55.4,234.2161,64.8134,234.6044,59.1699,240.248,59.5583,231.32,55.4" style="stroke:#181818;stroke-width:1.0;"/><text fill="#000000" font-family="sans-serif" font-size="13" lengthAdjust="spacing" textLength="40.9805" x="307.56" y="160.5669">Suben</text></g><!--SRC=[NOzDRW8n38NtEKKkm0LOT0EeT84q0iJUTLwdGH2FaXbknIcu60vDI3KRIy_Vyy_Z2wLaJ_Xzt7cwYE6NNabm4uyIYzvAfEWhtLo7Y4H5VGNs3bfguwZMdoeEY3VFxz4THd7IKI_6l8_QnUAZdRHBU_G8cF5oL6c7E2fdcDhBlBsXba-aqKiWqxPcJucXXeFl9yneHudEY9AKxy7ImxHMDlm5onzGJwQe36f8HMiC20x_QSjSHXrPbZ1RtjBgTzCtmXC0]--></g></svg>