<svg xmlns="http://www.w3.org/2000/svg" xmlns:xlink="http://www.w3.org/1999/xlink" contentStyleType="text/css" height="659px" preserveAspectRatio="none" style="width:700px;height:659px;background:#FFFFFF;" version="1.1" viewBox="0 0 700 659" width="700px" zoomAndPan="magnify"><defs/><g><!--class Veh?culo--><g id="elem_Veh&#237;culo"><rect codeLine="1" fill="#F1F1F1" height="64.2969" id="Veh&#237;culo" rx="2.5" ry="2.5" style="stroke:#181818;stroke-width:0.5;" width="129.8994" x="325.29" y="7"/><ellipse cx="357.3544" cy="23" fill="#ADD1B2" rx="11" ry="11" style="stroke:#181818;stroke-width:1.0;"/><path d="M360.3232,28.6406 Q359.745,28.9375 359.1044,29.0781 Q358.4638,29.2344 357.7607,29.2344 Q355.2607,29.2344 353.9325,27.5938 Q352.62,25.9375 352.62,22.8125 Q352.62,19.6875 353.9325,18.0313 Q355.2607,16.375 357.7607,16.375 Q358.4638,16.375 359.1044,16.5313 Q359.7607,16.6875 360.3232,16.9844 L360.3232,19.7031 Q359.6982,19.125 359.1044,18.8594 Q358.5107,18.5781 357.8857,18.5781 Q356.5419,18.5781 355.8544,19.6563 Q355.1669,20.7188 355.1669,22.8125 Q355.1669,24.9063 355.8544,25.9844 Q356.5419,27.0469 357.8857,27.0469 Q358.5107,27.0469 359.1044,26.7813 Q359.6982,26.5 360.3232,25.9219 L360.3232,28.6406 Z " fill="#000000"/><text fill="#000000" font-family="sans-serif" font-size="14" lengthAdjust="spacing" textLength="59.9785" x="375.1465" y="27.8467">Veh&#237;culo</text><line style="stroke:#181818;stroke-width:0.5;" x1="326.29" x2="454.1894" y1="39" y2="39"/><text fill="#000000" font-family="sans-serif" font-size="14" lengthAdjust="spacing" textLength="117.8994" x="331.29" y="55.9951">tipo = "Autob&#250;s"</text><line style="stroke:#181818;stroke-width:0.5;" x1="326.29" x2="454.1894" y1="63.2969" y2="63.2969"/></g><!--class Conductor--><g id="elem_Conductor"><rect codeLine="4" fill="#F1F1F1" height="64.2969" id="Conductor" rx="2.5" ry="2.5" style="stroke:#181818;stroke-width:0.5;" width="148.8418" x="315.82" y="148.3"/><ellipse cx="350.7822" cy="164.3" fill="#ADD1B2" rx="11" ry="11" style="stroke:#181818;stroke-width:1.0;"/><path d="M353.7509,169.9406 Q353.1728,170.2375 352.5322,170.3781 Q351.8915,170.5344 351.1884,170.5344 Q348.6884,170.5344 347.3603,168.8937 Q346.0478,167.2375 346.0478,164.1125 Q346.0478,160.9875 347.3603,159.3312 Q348.6884,157.675 351.1884,157.675 Q351.8915,157.675 352.5322,157.8312 Q353.1884,157.9875 353.7509,158.2844 L353.7509,161.0031 Q353.1259,160.425 352.5322,160.1594 Q351.9384,159.8781 351.3134,159.8781 Q349.9697,159.8781 349.2822,160.9562 Q348.5947,162.0187 348.5947,164.1125 Q348.5947,166.2062 349.2822,167.2844 Q349.9697,168.3469 351.3134,168.3469 Q351.9384,168.3469 352.5322,168.0812 Q353.1259,167.8 353.7509,167.2219 L353.7509,169.9406 Z " fill="#000000"/><text fill="#000000" font-family="sans-serif" font-size="14" lengthAdjust="spacing" textLength="72.4814" x="369.2182" y="169.1467">Conductor</text><line style="stroke:#181818;stroke-width:0.5;" x1="316.82" x2="463.6618" y1="180.3" y2="180.3"/><text fill="#000000" font-family="sans-serif" font-size="14" lengthAdjust="spacing" textLength="136.8418" x="321.82" y="197.2951">nombre = "Andr&#233;s"</text><line style="stroke:#181818;stroke-width:0.5;" x1="316.82" x2="463.6618" y1="204.5969" y2="204.5969"/></g><!--class Horario--><g id="elem_Horario"><rect codeLine="7" fill="#F1F1F1" height="64.2969" id="Horario" rx="2.5" ry="2.5" style="stroke:#181818;stroke-width:0.5;" width="184.0879" x="270.2" y="289.59"/><ellipse cx="332.1746" cy="305.59" fill="#ADD1B2" rx="11" ry="11" style="stroke:#181818;stroke-width:1.0;"/><path d="M335.1434,311.2306 Q334.5652,311.5275 333.9246,311.6681 Q333.284,311.8244 332.5809,311.8244 Q330.0809,311.8244 328.7527,310.1838 Q327.4402,308.5275 327.4402,305.4025 Q327.4402,302.2775 328.7527,300.6213 Q330.0809,298.965 332.5809,298.965 Q333.284,298.965 333.9246,299.1213 Q334.5809,299.2775 335.1434,299.5744 L335.1434,302.2931 Q334.5184,301.715 333.9246,301.4494 Q333.3309,301.1681 332.7059,301.1681 Q331.3621,301.1681 330.6746,302.2463 Q329.9871,303.3088 329.9871,305.4025 Q329.9871,307.4963 330.6746,308.5744 Q331.3621,309.6369 332.7059,309.6369 Q333.3309,309.6369 333.9246,309.3713 Q334.5184,309.09 335.1434,308.5119 L335.1434,311.2306 Z " fill="#000000"/><text fill="#000000" font-family="sans-serif" font-size="14" lengthAdjust="spacing" textLength="51.6387" x="352.6746" y="310.4367">Horario</text><line style="stroke:#181818;stroke-width:0.5;" x1="271.2" x2="453.2879" y1="321.59" y2="321.59"/><text fill="#000000" font-family="sans-serif" font-size="14" lengthAdjust="spacing" textLength="172.0879" x="276.2" y="338.5851">Frecuencia = "Cada 20'"</text><line style="stroke:#181818;stroke-width:0.5;" x1="271.2" x2="453.2879" y1="345.8869" y2="345.8869"/></g><!--class Empresa--><g id="elem_Empresa"><rect codeLine="10" fill="#F1F1F1" height="64.2969" id="Empresa" rx="2.5" ry="2.5" style="stroke:#181818;stroke-width:0.5;" width="121.71" x="120.39" y="148.3"/><ellipse cx="148.0339" cy="164.3" fill="#ADD1B2" rx="11" ry="11" style="stroke:#181818;stroke-width:1.0;"/><path d="M151.0027,169.9406 Q150.4246,170.2375 149.7839,170.3781 Q149.1433,170.5344 148.4402,170.5344 Q145.9402,170.5344 144.6121,168.8937 Q143.2996,167.2375 143.2996,164.1125 Q143.2996,160.9875 144.6121,159.3312 Q145.9402,157.675 148.4402,157.675 Q149.1433,157.675 149.7839,157.8312 Q150.4402,157.9875 151.0027,158.2844 L151.0027,161.0031 Q150.3777,160.425 149.7839,160.1594 Q149.1902,159.8781 148.5652,159.8781 Q147.2214,159.8781 146.5339,160.9562 Q145.8464,162.0187 145.8464,164.1125 Q145.8464,166.2062 146.5339,167.2844 Q147.2214,168.3469 148.5652,168.3469 Q149.1902,168.3469 149.7839,168.0812 Q150.3777,167.8 151.0027,167.2219 L151.0027,169.9406 Z " fill="#000000"/><text fill="#000000" font-family="sans-serif" font-size="14" lengthAdjust="spacing" textLength="61.6123" x="164.8437" y="169.1467">Empresa</text><line style="stroke:#181818;stroke-width:0.5;" x1="121.39" x2="241.1" y1="180.3" y2="180.3"/><text fill="#000000" font-family="sans-serif" font-size="14" lengthAdjust="spacing" textLength="109.71" x="126.39" y="197.2951">Nombre ="Tus"</text><line style="stroke:#181818;stroke-width:0.5;" x1="121.39" x2="241.1" y1="204.5969" y2="204.5969"/></g><!--class Incidencia--><g id="elem_Incidencia"><rect codeLine="13" fill="#F1F1F1" height="64.2969" id="Incidencia" rx="2.5" ry="2.5" style="stroke:#181818;stroke-width:0.5;" width="228.4805" x="7" y="289.59"/><ellipse cx="81.4263" cy="305.59" fill="#ADD1B2" rx="11" ry="11" style="stroke:#181818;stroke-width:1.0;"/><path d="M84.395,311.2306 Q83.8169,311.5275 83.1763,311.6681 Q82.5356,311.8244 81.8325,311.8244 Q79.3325,311.8244 78.0044,310.1838 Q76.6919,308.5275 76.6919,305.4025 Q76.6919,302.2775 78.0044,300.6213 Q79.3325,298.965 81.8325,298.965 Q82.5356,298.965 83.1763,299.1213 Q83.8325,299.2775 84.395,299.5744 L84.395,302.2931 Q83.77,301.715 83.1763,301.4494 Q82.5825,301.1681 81.9575,301.1681 Q80.6138,301.1681 79.9263,302.2463 Q79.2388,303.3088 79.2388,305.4025 Q79.2388,307.4963 79.9263,308.5744 Q80.6138,309.6369 81.9575,309.6369 Q82.5825,309.6369 83.1763,309.3713 Q83.77,309.09 84.395,308.5119 L84.395,311.2306 Z " fill="#000000"/><text fill="#000000" font-family="sans-serif" font-size="14" lengthAdjust="spacing" textLength="71.1279" x="101.9263" y="310.4367">Incidencia</text><line style="stroke:#181818;stroke-width:0.5;" x1="8" x2="234.4805" y1="321.59" y2="321.59"/><text fill="#000000" font-family="sans-serif" font-size="14" lengthAdjust="spacing" textLength="216.4805" x="13" y="338.5851">Tipo ="Fallo lector de tarjetas"</text><line style="stroke:#181818;stroke-width:0.5;" x1="8" x2="234.4805" y1="345.8869" y2="345.8869"/></g><!--class Tarifa--><g id="elem_Tarifa"><rect codeLine="16" fill="#F1F1F1" height="80.5938" id="Tarifa" rx="2.5" ry="2.5" style="stroke:#181818;stroke-width:0.5;" width="111.0117" x="490.73" y="430.89"/><ellipse cx="523.1574" cy="446.89" fill="#ADD1B2" rx="11" ry="11" style="stroke:#181818;stroke-width:1.0;"/><path d="M526.1261,452.5306 Q525.548,452.8275 524.9074,452.9681 Q524.2668,453.1244 523.5636,453.1244 Q521.0636,453.1244 519.7355,451.4838 Q518.423,449.8275 518.423,446.7025 Q518.423,443.5775 519.7355,441.9213 Q521.0636,440.265 523.5636,440.265 Q524.2668,440.265 524.9074,440.4213 Q525.5636,440.5775 526.1261,440.8744 L526.1261,443.5931 Q525.5011,443.015 524.9074,442.7494 Q524.3136,442.4681 523.6886,442.4681 Q522.3449,442.4681 521.6574,443.5463 Q520.9699,444.6088 520.9699,446.7025 Q520.9699,448.7963 521.6574,449.8744 Q522.3449,450.9369 523.6886,450.9369 Q524.3136,450.9369 524.9074,450.6713 Q525.5011,450.39 526.1261,449.8119 L526.1261,452.5306 Z " fill="#000000"/><text fill="#000000" font-family="sans-serif" font-size="14" lengthAdjust="spacing" textLength="40.2842" x="541.0301" y="451.7367">Tarifa</text><line style="stroke:#181818;stroke-width:0.5;" x1="491.73" x2="600.7417" y1="462.89" y2="462.89"/><text fill="#000000" font-family="sans-serif" font-size="14" lengthAdjust="spacing" textLength="99.0117" x="496.73" y="479.8851">Tipo = "Bono"</text><text fill="#000000" font-family="sans-serif" font-size="14" lengthAdjust="spacing" textLength="81.8535" x="496.73" y="496.182">precio = 5&#8364;</text><line style="stroke:#181818;stroke-width:0.5;" x1="491.73" x2="600.7417" y1="503.4838" y2="503.4838"/></g><!--class Servicio--><g id="elem_Servicio"><rect codeLine="20" fill="#F1F1F1" height="64.2969" id="Servicio" rx="2.5" ry="2.5" style="stroke:#181818;stroke-width:0.5;" width="122.1406" x="404.17" y="588.48"/><ellipse cx="434.7209" cy="604.48" fill="#ADD1B2" rx="11" ry="11" style="stroke:#181818;stroke-width:1.0;"/><path d="M437.6897,610.1206 Q437.1116,610.4175 436.4709,610.5581 Q435.8303,610.7144 435.1272,610.7144 Q432.6272,610.7144 431.2991,609.0738 Q429.9866,607.4175 429.9866,604.2925 Q429.9866,601.1675 431.2991,599.5113 Q432.6272,597.855 435.1272,597.855 Q435.8303,597.855 436.4709,598.0113 Q437.1272,598.1675 437.6897,598.4644 L437.6897,601.1831 Q437.0647,600.605 436.4709,600.3394 Q435.8772,600.0581 435.2522,600.0581 Q433.9084,600.0581 433.2209,601.1363 Q432.5334,602.1988 432.5334,604.2925 Q432.5334,606.3863 433.2209,607.4644 Q433.9084,608.5269 435.2522,608.5269 Q435.8772,608.5269 436.4709,608.2613 Q437.0647,607.98 437.6897,607.4019 L437.6897,610.1206 Z " fill="#000000"/><text fill="#000000" font-family="sans-serif" font-size="14" lengthAdjust="spacing" textLength="55.583" x="452.1767" y="609.3267">Servicio</text><line style="stroke:#181818;stroke-width:0.5;" x1="405.17" x2="525.3106" y1="620.48" y2="620.48"/><text fill="#000000" font-family="sans-serif" font-size="14" lengthAdjust="spacing" textLength="110.1406" x="410.17" y="637.4751">Tipo = "Diurno"</text><line style="stroke:#181818;stroke-width:0.5;" x1="405.17" x2="525.3106" y1="644.7769" y2="644.7769"/></g><!--class MetodoPago--><g id="elem_MetodoPago"><rect codeLine="23" fill="#F1F1F1" height="64.2969" id="MetodoPago" rx="2.5" ry="2.5" style="stroke:#181818;stroke-width:0.5;" width="131.7178" x="561.38" y="588.48"/><ellipse cx="582.2502" cy="604.48" fill="#ADD1B2" rx="11" ry="11" style="stroke:#181818;stroke-width:1.0;"/><path d="M585.219,610.1206 Q584.6408,610.4175 584.0002,610.5581 Q583.3596,610.7144 582.6565,610.7144 Q580.1565,610.7144 578.8283,609.0738 Q577.5158,607.4175 577.5158,604.2925 Q577.5158,601.1675 578.8283,599.5113 Q580.1565,597.855 582.6565,597.855 Q583.3596,597.855 584.0002,598.0113 Q584.6565,598.1675 585.219,598.4644 L585.219,601.1831 Q584.594,600.605 584.0002,600.3394 Q583.4065,600.0581 582.7815,600.0581 Q581.4377,600.0581 580.7502,601.1363 Q580.0627,602.1988 580.0627,604.2925 Q580.0627,606.3863 580.7502,607.4644 Q581.4377,608.5269 582.7815,608.5269 Q583.4065,608.5269 584.0002,608.2613 Q584.594,607.98 585.219,607.4019 L585.219,610.1206 Z " fill="#000000"/><text fill="#000000" font-family="sans-serif" font-size="14" lengthAdjust="spacing" textLength="86.6729" x="597.5547" y="609.3267">MetodoPago</text><line style="stroke:#181818;stroke-width:0.5;" x1="562.38" x2="692.0978" y1="620.48" y2="620.48"/><text fill="#000000" font-family="sans-serif" font-size="14" lengthAdjust="spacing" textLength="119.7178" x="567.38" y="637.4751">Tipo = "Efectivo"</text><line style="stroke:#181818;stroke-width:0.5;" x1="562.38" x2="692.0978" y1="644.7769" y2="644.7769"/></g><!--class Pasajeros--><g id="elem_Pasajeros"><rect codeLine="26" fill="#F1F1F1" height="64.2969" id="Pasajeros" rx="2.5" ry="2.5" style="stroke:#181818;stroke-width:0.5;" width="113.4043" x="489.54" y="289.59"/><ellipse cx="511.0162" cy="305.59" fill="#ADD1B2" rx="11" ry="11" style="stroke:#181818;stroke-width:1.0;"/><path d="M513.985,311.2306 Q513.4068,311.5275 512.7662,311.6681 Q512.1256,311.8244 511.4225,311.8244 Q508.9225,311.8244 507.5943,310.1838 Q506.2818,308.5275 506.2818,305.4025 Q506.2818,302.2775 507.5943,300.6213 Q508.9225,298.965 511.4225,298.965 Q512.1256,298.965 512.7662,299.1213 Q513.4225,299.2775 513.985,299.5744 L513.985,302.2931 Q513.36,301.715 512.7662,301.4494 Q512.1725,301.1681 511.5475,301.1681 Q510.2037,301.1681 509.5162,302.2463 Q508.8287,303.3088 508.8287,305.4025 Q508.8287,307.4963 509.5162,308.5744 Q510.2037,309.6369 511.5475,309.6369 Q512.1725,309.6369 512.7662,309.3713 Q513.36,309.09 513.985,308.5119 L513.985,311.2306 Z " fill="#000000"/><text fill="#000000" font-family="sans-serif" font-size="14" lengthAdjust="spacing" textLength="67.0127" x="526.4554" y="310.4367">Pasajeros</text><line style="stroke:#181818;stroke-width:0.5;" x1="490.54" x2="601.9443" y1="321.59" y2="321.59"/><text fill="#000000" font-family="sans-serif" font-size="14" lengthAdjust="spacing" textLength="101.4043" x="495.54" y="338.5851">Cantidad = 10</text><line style="stroke:#181818;stroke-width:0.5;" x1="490.54" x2="601.9443" y1="345.8869" y2="345.8869"/></g><!--link Veh?culo to Conductor--><g id="link_Veh&#237;culo_Conductor"><path codeLine="30" d="M390.24,71.76 C390.24,94.55 390.24,119.19 390.24,141.96 " fill="none" id="Veh&#237;culo-to-Conductor" style="stroke:#181818;stroke-width:1.0;"/><polygon fill="#181818" points="390.24,147.96,394.24,138.96,390.24,142.96,386.24,138.96,390.24,147.96" style="stroke:#181818;stroke-width:1.0;"/><text fill="#000000" font-family="sans-serif" font-size="13" lengthAdjust="spacing" textLength="35.7881" x="391.24" y="114.3669">Tiene</text></g><!--link Veh?culo to Empresa--><g id="link_Veh&#237;culo_Empresa"><path codeLine="31" d="M342.81,71.76 C308.61,94.55 267.6325,121.8621 233.4725,144.6321 " fill="none" id="Veh&#237;culo-to-Empresa" style="stroke:#181818;stroke-width:1.0;"/><polygon fill="#181818" points="228.48,147.96,238.1874,146.2966,232.6404,145.1868,233.7502,139.6399,228.48,147.96" style="stroke:#181818;stroke-width:1.0;"/><text fill="#000000" font-family="sans-serif" font-size="13" lengthAdjust="spacing" textLength="65.6602" x="299.24" y="114.3669">Pertenece</text></g><!--link Empresa to Incidencia--><g id="link_Empresa_Incidencia"><path codeLine="32" d="M167.63,213.05 C157.81,235.85 146.984,260.9796 137.174,283.7496 " fill="none" id="Empresa-to-Incidencia" style="stroke:#181818;stroke-width:1.0;"/><polygon fill="#181818" points="134.8,289.26,142.0346,282.5772,136.7784,284.668,134.6875,279.4118,134.8,289.26" style="stroke:#181818;stroke-width:1.0;"/><text fill="#000000" font-family="sans-serif" font-size="13" lengthAdjust="spacing" textLength="57.7129" x="156.24" y="255.6569">Gestiona</text></g><!--link Conductor to Horario--><g id="link_Conductor_Horario"><path codeLine="33" d="M382,213.08 C379.66,222.54 377.22,232.96 375.24,242.59 C372.08,257.95 370.0987,269.2039 367.8287,283.5339 " fill="none" id="Conductor-to-Horario" style="stroke:#181818;stroke-width:1.0;"/><polygon fill="#181818" points="366.89,289.46,372.2489,281.1967,367.6723,284.5216,364.3474,279.945,366.89,289.46" style="stroke:#181818;stroke-width:1.0;"/><text fill="#000000" font-family="sans-serif" font-size="13" lengthAdjust="spacing" textLength="36.353" x="376.24" y="255.6569">Sigue</text></g><!--link Conductor to Pasajeros--><g id="link_Conductor_Pasajeros"><path codeLine="34" d="M416.15,212.92 C429.03,227.76 445.24,245.31 461.24,259.59 C472.77,269.88 481.1397,276.5757 493.6897,285.6057 " fill="none" id="Conductor-to-Pasajeros" style="stroke:#181818;stroke-width:1.0;"/><polygon fill="#181818" points="498.56,289.11,493.5907,280.6067,494.5014,286.1898,488.9183,287.1004,498.56,289.11" style="stroke:#181818;stroke-width:1.0;"/><text fill="#000000" font-family="sans-serif" font-size="13" lengthAdjust="spacing" textLength="48.3818" x="462.24" y="255.6569">Recoge</text></g><!--link Pasajeros to Tarifa--><g id="link_Pasajeros_Tarifa"><path codeLine="35" d="M546.24,354.37 C546.24,376.63 546.24,400.58 546.24,424.44 " fill="none" id="Pasajeros-to-Tarifa" style="stroke:#181818;stroke-width:1.0;"/><polygon fill="#181818" points="546.24,430.44,550.24,421.44,546.24,425.44,542.24,421.44,546.24,430.44" style="stroke:#181818;stroke-width:1.0;"/><text fill="#000000" font-family="sans-serif" font-size="13" lengthAdjust="spacing" textLength="32.0239" x="547.24" y="396.9569">Paga</text></g><!--link Tarifa to Servicio--><g id="link_Tarifa_Servicio"><path codeLine="36" d="M524.53,511.7 C511.32,535.75 497.5573,560.7904 485.2773,583.1604 " fill="none" id="Tarifa-to-Servicio" style="stroke:#181818;stroke-width:1.0;"/><polygon fill="#181818" points="482.39,588.42,490.2273,582.4554,484.7961,584.037,483.2145,578.6057,482.39,588.42" style="stroke:#181818;stroke-width:1.0;"/><text fill="#000000" font-family="sans-serif" font-size="13" lengthAdjust="spacing" textLength="58.7476" x="508.24" y="554.5469">Depende</text></g><!--link Tarifa to MetodoPago--><g id="link_Tarifa_MetodoPago"><path codeLine="37" d="M567.95,511.7 C581.16,535.75 594.9227,560.7904 607.2027,583.1604 " fill="none" id="Tarifa-to-MetodoPago" style="stroke:#181818;stroke-width:1.0;"/><polygon fill="#181818" points="610.09,588.42,609.2655,578.6057,607.6839,584.037,602.2527,582.4554,610.09,588.42" style="stroke:#181818;stroke-width:1.0;"/><text fill="#000000" font-family="sans-serif" font-size="13" lengthAdjust="spacing" textLength="75.7148" x="592.24" y="554.5469">Pagada con</text></g><!--link Pasajeros to Veh?culo--><g id="link_Pasajeros_Veh&#237;culo"><path codeLine="38" d="M538.19,289.39 C528.23,253.67 509.21,194.31 482.24,148.3 C465.66,120.01 445.6105,96.2719 426.2005,75.8219 " fill="none" id="Pasajeros-to-Veh&#237;culo" style="stroke:#181818;stroke-width:1.0;"/><polygon fill="#181818" points="422.07,71.47,425.3646,80.7515,425.5121,75.0965,431.167,75.2441,422.07,71.47" style="stroke:#181818;stroke-width:1.0;"/><text fill="#000000" font-family="sans-serif" font-size="13" lengthAdjust="spacing" textLength="40.9805" x="513.24" y="185.0069">Suben</text></g><!--SRC=[NP9DJiCm58JtFeML3QjA1OaD4aZG7s01gcZ5_jL-15UfN-MVRX0RReC45s3Rct0IdlDJXsGNppUJoIIg0k_bCxuUlbMiw4r8leBPaRoKnNKCj3xy-4Ay2rM34x8wga2k0Irjrmvhr6ft-EoHT-J0cJPmxb15jCf0OYUWGPwDJp8ys-uSUcZWnpQqMCLUtZsxTHtHKAkwOp67gY9POUeaDSe0ReC1UiOLrtZvPvB53LagwXD-hZBfxFptu-leMQBR6zMrxrnJ4rtoTTG31jAqW7B0pLwuZjdto0LusA0Ztu0JiC5eq0oVZXaIn_tbQ7ILHvONd8aM1tgx5giBT85rXQ8xItgUYf5RzC6G1P5J4zD-7WQMfemuK8zzMNz2HIMAV9I0PjJK04eGxLqIkkLOck8EhSQ-cXThhVmZABA3yFost2wkqVu1]--></g></svg>