<svg xmlns="http://www.w3.org/2000/svg" xmlns:xlink="http://www.w3.org/1999/xlink" contentStyleType="text/css" height="1375px" preserveAspectRatio="none" style="width:561px;height:1375px;background:#FFFFFF;" version="1.1" viewBox="0 0 561 1375" width="561px" zoomAndPan="magnify"><defs/><g><ellipse cx="448.18" cy="16" fill="#222222" rx="10" ry="10" style="stroke:#222222;stroke-width:1.0;"/><g id="InicioDelDia"><rect fill="#F1F1F1" height="50" rx="12.5" ry="12.5" style="stroke:#181818;stroke-width:0.5;" width="103.5762" x="396.39" y="103"/><line style="stroke:#181818;stroke-width:0.5;" x1="396.39" x2="499.9662" y1="129.2969" y2="129.2969"/><text fill="#000000" font-family="sans-serif" font-size="14" lengthAdjust="spacing" textLength="83.5762" x="406.39" y="120.9951">InicioDelDia</text></g><g id="InicioRuta"><rect fill="#F1F1F1" height="50" rx="12.5" ry="12.5" style="stroke:#181818;stroke-width:0.5;" width="89.7129" x="403.32" y="230"/><line style="stroke:#181818;stroke-width:0.5;" x1="403.32" x2="493.0329" y1="256.2969" y2="256.2969"/><text fill="#000000" font-family="sans-serif" font-size="14" lengthAdjust="spacing" textLength="69.7129" x="413.32" y="247.9951">InicioRuta</text></g><g id="elem_choice"><polygon fill="#F1F1F1" points="434.18,1119,446.18,1131,434.18,1143,422.18,1131,434.18,1119" style="stroke:#181818;stroke-width:0.5;"/></g><g id="SinPasajeros"><rect fill="#F1F1F1" height="50" rx="12.5" ry="12.5" style="stroke:#181818;stroke-width:0.5;" width="108.6621" x="331.85" y="357"/><line style="stroke:#181818;stroke-width:0.5;" x1="331.85" x2="440.5121" y1="383.2969" y2="383.2969"/><text fill="#000000" font-family="sans-serif" font-size="14" lengthAdjust="spacing" textLength="88.6621" x="341.85" y="374.9951">SinPasajeros</text></g><g id="Parada"><rect fill="#F1F1F1" height="50" rx="12.5" ry="12.5" style="stroke:#181818;stroke-width:0.5;" width="68.8223" x="316.77" y="484"/><line style="stroke:#181818;stroke-width:0.5;" x1="316.77" x2="385.5923" y1="510.2969" y2="510.2969"/><text fill="#000000" font-family="sans-serif" font-size="14" lengthAdjust="spacing" textLength="48.8223" x="326.77" y="501.9951">Parada</text></g><g id="RecogePasajero"><rect fill="#F1F1F1" height="50" rx="12.5" ry="12.5" style="stroke:#181818;stroke-width:0.5;" width="131.8223" x="148.27" y="611"/><line style="stroke:#181818;stroke-width:0.5;" x1="148.27" x2="280.0923" y1="637.2969" y2="637.2969"/><text fill="#000000" font-family="sans-serif" font-size="14" lengthAdjust="spacing" textLength="111.8223" x="158.27" y="628.9951">RecogePasajero</text></g><g id="EnMovimiento"><rect fill="#F1F1F1" height="50" rx="12.5" ry="12.5" style="stroke:#181818;stroke-width:0.5;" width="119.6064" x="157.38" y="738"/><line style="stroke:#181818;stroke-width:0.5;" x1="157.38" x2="276.9864" y1="764.2969" y2="764.2969"/><text fill="#000000" font-family="sans-serif" font-size="14" lengthAdjust="spacing" textLength="99.6064" x="167.38" y="755.9951">EnMovimiento</text></g><g id="Incidencia"><rect fill="#F1F1F1" height="50" rx="12.5" ry="12.5" style="stroke:#181818;stroke-width:0.5;" width="91.1279" x="170.62" y="865"/><line style="stroke:#181818;stroke-width:0.5;" x1="170.62" x2="261.7479" y1="891.2969" y2="891.2969"/><text fill="#000000" font-family="sans-serif" font-size="14" lengthAdjust="spacing" textLength="71.1279" x="180.62" y="882.9951">Incidencia</text></g><g id="FinRuta"><rect fill="#F1F1F1" height="50" rx="12.5" ry="12.5" style="stroke:#181818;stroke-width:0.5;" width="73.4844" x="323.44" y="992"/><line style="stroke:#181818;stroke-width:0.5;" x1="323.44" x2="396.9244" y1="1018.2969" y2="1018.2969"/><text fill="#000000" font-family="sans-serif" font-size="14" lengthAdjust="spacing" textLength="53.4844" x="333.44" y="1009.9951">FinRuta</text></g><g id="FinDelDia"><rect fill="#F1F1F1" height="50" rx="12.5" ry="12.5" style="stroke:#181818;stroke-width:0.5;" width="87.3477" x="390.51" y="1220"/><line style="stroke:#181818;stroke-width:0.5;" x1="390.51" x2="477.8577" y1="1246.2969" y2="1246.2969"/><text fill="#000000" font-family="sans-serif" font-size="14" lengthAdjust="spacing" textLength="67.3477" x="400.51" y="1237.9951">FinDelDia</text></g><ellipse cx="434.18" cy="1358" fill="none" rx="11" ry="11" style="stroke:#222222;stroke-width:1.0;"/><ellipse cx="434.18" cy="1358" fill="#222222" rx="6" ry="6" style="stroke:#222222;stroke-width:1.0;"/><!--link *start* to InicioDelDia--><g id="link_*start*_InicioDelDia"><path d="M448.18,26.38 C448.18,43.11 448.18,72.59 448.18,96.63 " fill="none" id="*start*-to-InicioDelDia" style="stroke:#181818;stroke-width:1.0;"/><polygon fill="#181818" points="448.18,102.63,452.18,93.63,448.18,97.63,444.18,93.63,448.18,102.63" style="stroke:#181818;stroke-width:1.0;"/><text fill="#000000" font-family="sans-serif" font-size="13" lengthAdjust="spacing" textLength="104.0381" x="449.18" y="69.0669">Comienza el d&#237;a</text></g><!--link InicioDelDia to InicioRuta--><g id="link_InicioDelDia_InicioRuta"><path d="M448.18,153.4 C448.18,175.42 448.18,201.66 448.18,223.66 " fill="none" id="InicioDelDia-to-InicioRuta" style="stroke:#181818;stroke-width:1.0;"/><polygon fill="#181818" points="448.18,229.66,452.18,220.66,448.18,224.66,444.18,220.66,448.18,229.66" style="stroke:#181818;stroke-width:1.0;"/><text fill="#000000" font-family="sans-serif" font-size="13" lengthAdjust="spacing" textLength="74.2231" x="449.18" y="196.0669">Iniciar Ruta</text></g><!--link InicioRuta to SinPasajeros--><g id="link_InicioRuta_SinPasajeros"><path d="M416.89,280.29 C408.12,288.73 399.53,298.89 394.18,310 C387.24,324.42 385.3654,336.3309 385.1154,350.5609 " fill="none" id="InicioRuta-to-SinPasajeros" style="stroke:#181818;stroke-width:1.0;"/><polygon fill="#181818" points="385.01,356.56,389.1675,347.6317,385.0978,351.5608,381.1687,347.4911,385.01,356.56" style="stroke:#181818;stroke-width:1.0;"/><text fill="#000000" font-family="sans-serif" font-size="13" lengthAdjust="spacing" textLength="86.874" x="395.18" y="323.0669">Sin pasajeros</text></g><!--link SinPasajeros to Parada--><g id="link_SinPasajeros_Parada"><path d="M379.35,407.4 C373.18,429.42 365.7778,455.8822 359.6178,477.8822 " fill="none" id="SinPasajeros-to-Parada" style="stroke:#181818;stroke-width:1.0;"/><polygon fill="#181818" points="358,483.66,364.2785,476.0718,359.3481,478.8452,356.5748,473.9148,358,483.66" style="stroke:#181818;stroke-width:1.0;"/><text fill="#000000" font-family="sans-serif" font-size="13" lengthAdjust="spacing" textLength="101.9814" x="372.18" y="450.0669">Llegar a Parada</text></g><!--link Parada to RecogePasajero--><g id="link_Parada_RecogePasajero"><path d="M316.3,517.43 C289.81,524.84 254.41,538.88 233.18,564 C222.23,576.96 218.3222,589.6725 216.3322,604.6125 " fill="none" id="Parada-to-RecogePasajero" style="stroke:#181818;stroke-width:1.0;"/><polygon fill="#181818" points="215.54,610.56,220.6933,602.1669,216.2002,605.6038,212.7633,601.1107,215.54,610.56" style="stroke:#181818;stroke-width:1.0;"/><text fill="#000000" font-family="sans-serif" font-size="13" lengthAdjust="spacing" textLength="90.8477" x="234.18" y="577.0669">Pasajero sube</text></g><!--link RecogePasajero to EnMovimiento--><g id="link_RecogePasajero_EnMovimiento"><path d="M210.74,661.32 C209.23,675.03 208.04,692.47 209.18,708 C209.9,717.74 210.3936,722.4535 211.8536,731.6935 " fill="none" id="RecogePasajero-to-EnMovimiento" style="stroke:#181818;stroke-width:1.0;"/><polygon fill="#181818" points="212.79,737.62,215.3363,728.106,212.0096,732.6813,207.4344,729.3546,212.79,737.62" style="stroke:#181818;stroke-width:1.0;"/><text fill="#000000" font-family="sans-serif" font-size="13" lengthAdjust="spacing" textLength="114.918" x="210.18" y="704.0669">Continuar en ruta</text></g><!--link EnMovimiento to Parada--><g id="link_EnMovimiento_Parada"><path d="M277.37,745.91 C296.89,737.71 316.71,725.62 329.18,708 C366.45,655.36 361.9384,580.2711 356.2784,540.1611 " fill="none" id="EnMovimiento-to-Parada" style="stroke:#181818;stroke-width:1.0;"/><polygon fill="#181818" points="355.44,534.22,352.7368,543.6906,356.1386,539.1709,360.6583,542.5728,355.44,534.22" style="stroke:#181818;stroke-width:1.0;"/><text fill="#000000" font-family="sans-serif" font-size="13" lengthAdjust="spacing" textLength="102.9526" x="360.18" y="640.5669">Pr&#243;xima parada</text></g><!--link EnMovimiento to Incidencia--><g id="link_EnMovimiento_Incidencia"><path d="M157.05,765.14 C117.21,769.42 67.59,782.27 41.18,818 C6,865.59 101.4501,880.8794 164.3401,886.0394 " fill="none" id="EnMovimiento-to-Incidencia" style="stroke:#181818;stroke-width:1.0;"/><polygon fill="#181818" points="170.32,886.53,161.6772,881.8074,165.3367,886.1211,161.023,889.7806,170.32,886.53" style="stroke:#181818;stroke-width:1.0;"/><text fill="#000000" font-family="sans-serif" font-size="13" lengthAdjust="spacing" textLength="131.5234" x="42.18" y="831.0669">Problema detectado</text></g><!--link Incidencia to EnMovimiento--><g id="link_Incidencia_EnMovimiento"><path d="M214.82,864.68 C214.23,850.97 213.75,833.53 214.18,818 C214.45,808.33 214.6403,803.6898 215.1803,794.4398 " fill="none" id="Incidencia-to-EnMovimiento" style="stroke:#181818;stroke-width:1.0;"/><polygon fill="#181818" points="215.53,788.45,211.0123,797.2016,215.2386,793.4415,218.9987,797.6678,215.53,788.45" style="stroke:#181818;stroke-width:1.0;"/><text fill="#000000" font-family="sans-serif" font-size="13" lengthAdjust="spacing" textLength="118.7773" x="215.18" y="831.0669">Problema resuelto</text></g><!--link Incidencia to FinRuta--><g id="link_Incidencia_FinRuta"><path d="M208.19,915.44 C204.95,930.19 203.86,948.65 213.18,962 C237.85,997.34 282.3637,1008.8975 317.2337,1013.1275 " fill="none" id="Incidencia-to-FinRuta" style="stroke:#181818;stroke-width:1.0;"/><polygon fill="#181818" points="323.19,1013.85,314.7372,1008.7953,318.2264,1013.2479,313.7738,1016.7371,323.19,1013.85" style="stroke:#181818;stroke-width:1.0;"/><text fill="#000000" font-family="sans-serif" font-size="13" lengthAdjust="spacing" textLength="119.0884" x="214.18" y="958.0669">Ruta interrumpida</text></g><!--link EnMovimiento to FinRuta--><g id="link_EnMovimiento_FinRuta"><path d="M277.37,777.27 C299.92,785.31 323.6,798.03 338.18,818 C376.23,870.09 371.3908,945.4335 365.4808,985.7235 " fill="none" id="EnMovimiento-to-FinRuta" style="stroke:#181818;stroke-width:1.0;"/><polygon fill="#181818" points="364.61,991.66,369.8738,983.3358,365.3357,986.7129,361.9586,982.1748,364.61,991.66" style="stroke:#181818;stroke-width:1.0;"/><text fill="#000000" font-family="sans-serif" font-size="13" lengthAdjust="spacing" textLength="93.5771" x="369.18" y="894.5669">Terminar Ruta</text></g><!--link FinRuta to choice--><g id="link_FinRuta_choice"><path d="M359.58,1042.44 C360.31,1057 363.25,1075.27 372.18,1089 C385.27,1109.12 406.4807,1119.4682 420.1607,1124.8082 " fill="none" id="FinRuta-to-choice" style="stroke:#181818;stroke-width:1.0;"/><polygon fill="#181818" points="425.75,1126.99,418.8206,1119.9912,421.0923,1125.1719,415.9116,1127.4435,425.75,1126.99" style="stroke:#181818;stroke-width:1.0;"/><text fill="#000000" font-family="sans-serif" font-size="13" lengthAdjust="spacing" textLength="108.3228" x="373.18" y="1085.0669">&#191;Hay m&#225;s rutas?</text></g><!--link choice to InicioRuta--><g id="link_choice_InicioRuta"><path d="M441.73,1126.03 C453.05,1119.69 474.34,1106.25 486.18,1089 C504.88,1061.77 508.18,1051.04 508.18,1018 C508.18,381 508.18,381 508.18,381 C508.18,342.97 488.8593,309.1222 471.3593,285.0622 " fill="none" id="choice-to-InicioRuta" style="stroke:#181818;stroke-width:1.0;"/><polygon fill="#181818" points="467.83,280.21,469.8891,289.8412,470.7711,284.2535,476.3587,285.1355,467.83,280.21" style="stroke:#181818;stroke-width:1.0;"/><text fill="#000000" font-family="sans-serif" font-size="13" lengthAdjust="spacing" textLength="11.8638" x="509.18" y="704.0669">S&#237;</text></g><!--link choice to FinDelDia--><g id="link_choice_FinDelDia"><path d="M434.18,1143.56 C434.18,1161.45 434.18,1190.21 434.18,1213.77 " fill="none" id="choice-to-FinDelDia" style="stroke:#181818;stroke-width:1.0;"/><polygon fill="#181818" points="434.18,1219.77,438.18,1210.77,434.18,1214.77,430.18,1210.77,434.18,1219.77" style="stroke:#181818;stroke-width:1.0;"/><text fill="#000000" font-family="sans-serif" font-size="13" lengthAdjust="spacing" textLength="17.6782" x="435.18" y="1186.0669">No</text></g><!--link FinDelDia to *end*--><g id="link_FinDelDia_*end*"><path d="M434.18,1270.36 C434.18,1294.23 434.18,1323.46 434.18,1340.71 " fill="none" id="FinDelDia-to-*end*" style="stroke:#181818;stroke-width:1.0;"/><polygon fill="#181818" points="434.18,1346.71,438.18,1337.71,434.18,1341.71,430.18,1337.71,434.18,1346.71" style="stroke:#181818;stroke-width:1.0;"/><text fill="#000000" font-family="sans-serif" font-size="13" lengthAdjust="spacing" textLength="78.8633" x="435.18" y="1313.0669">Final del d&#237;a</text></g><!--SRC=[RP91JiCm44NtFiMiaNg1g0eB2g8IeAXbLx6OEgCoLM9NjeE0st20hZW04haOjkkaISecyVY_-PwnPtFr0hDP3al5alM2gWKZP72ZQoRrYK0LbEqHXHW1vunLum8V0pGGGY6iGqSWNpLBWldyjCZppYJc18irgm8jxibewqry28Sk5YCnq0KQBCDX3nNj_5cOTaGI0hCYgNVKvNcsNzfcIs8YXunRzQZVE7JhT6nSELQDjoS59dGp0aPr5ARzVkSQVT6nZajqgIINv3ydN6yhydX9ZgJ3Kek17l0xLka-uu-L8sEQ-i3UV89Eokwz3Tc6AgV_AURi_aocPjK_LoS4A3rQ1hy_z_W1TVjbupNOQv6aYxTVjyUXvjtwCNhIqNqmDHi_RrbWq0zM6gu_]--></g></svg>