<svg xmlns="http://www.w3.org/2000/svg" xmlns:xlink="http://www.w3.org/1999/xlink" contentStyleType="text/css" height="1274px" preserveAspectRatio="none" style="width:621px;height:1274px;background:#FFFFFF;" version="1.1" viewBox="0 0 621 1274" width="621px" zoomAndPan="magnify"><defs/><g><ellipse cx="448.18" cy="16" fill="#222222" rx="10" ry="10" style="stroke:#222222;stroke-width:1.0;"/><g id="InicioDelDia"><rect fill="#F1F1F1" height="50" rx="12.5" ry="12.5" style="stroke:#181818;stroke-width:0.5;" width="103.5762" x="396.39" y="103"/><line style="stroke:#181818;stroke-width:0.5;" x1="396.39" x2="499.9662" y1="129.2969" y2="129.2969"/><text fill="#000000" font-family="sans-serif" font-size="14" lengthAdjust="spacing" textLength="83.5762" x="406.39" y="120.9951">InicioDelDia</text></g><g id="InicioRuta"><rect fill="#F1F1F1" height="50" rx="12.5" ry="12.5" style="stroke:#181818;stroke-width:0.5;" width="89.7129" x="403.32" y="230"/><line style="stroke:#181818;stroke-width:0.5;" x1="403.32" x2="493.0329" y1="256.2969" y2="256.2969"/><text fill="#000000" font-family="sans-serif" font-size="14" lengthAdjust="spacing" textLength="69.7129" x="413.32" y="247.9951">InicioRuta</text></g><g id="SinPasajeros"><rect fill="#F1F1F1" height="50" rx="12.5" ry="12.5" style="stroke:#181818;stroke-width:0.5;" width="108.6621" x="331.85" y="357"/><line style="stroke:#181818;stroke-width:0.5;" x1="331.85" x2="440.5121" y1="383.2969" y2="383.2969"/><text fill="#000000" font-family="sans-serif" font-size="14" lengthAdjust="spacing" textLength="88.6621" x="341.85" y="374.9951">SinPasajeros</text></g><g id="Parada"><rect fill="#F1F1F1" height="50" rx="12.5" ry="12.5" style="stroke:#181818;stroke-width:0.5;" width="68.8223" x="299.77" y="484"/><line style="stroke:#181818;stroke-width:0.5;" x1="299.77" x2="368.5923" y1="510.2969" y2="510.2969"/><text fill="#000000" font-family="sans-serif" font-size="14" lengthAdjust="spacing" textLength="48.8223" x="309.77" y="501.9951">Parada</text></g><g id="RecogePasajero"><rect fill="#F1F1F1" height="50" rx="12.5" ry="12.5" style="stroke:#181818;stroke-width:0.5;" width="131.8223" x="131.27" y="611"/><line style="stroke:#181818;stroke-width:0.5;" x1="131.27" x2="263.0923" y1="637.2969" y2="637.2969"/><text fill="#000000" font-family="sans-serif" font-size="14" lengthAdjust="spacing" textLength="111.8223" x="141.27" y="628.9951">RecogePasajero</text></g><g id="EnMovimiento"><rect fill="#F1F1F1" height="50" rx="12.5" ry="12.5" style="stroke:#181818;stroke-width:0.5;" width="119.6064" x="157.38" y="738"/><line style="stroke:#181818;stroke-width:0.5;" x1="157.38" x2="276.9864" y1="764.2969" y2="764.2969"/><text fill="#000000" font-family="sans-serif" font-size="14" lengthAdjust="spacing" textLength="99.6064" x="167.38" y="755.9951">EnMovimiento</text></g><g id="Incidencia"><rect fill="#F1F1F1" height="50" rx="12.5" ry="12.5" style="stroke:#181818;stroke-width:0.5;" width="91.1279" x="170.62" y="865"/><line style="stroke:#181818;stroke-width:0.5;" x1="170.62" x2="261.7479" y1="891.2969" y2="891.2969"/><text fill="#000000" font-family="sans-serif" font-size="14" lengthAdjust="spacing" textLength="71.1279" x="180.62" y="882.9951">Incidencia</text></g><g id="FinRuta"><rect fill="#F1F1F1" height="50" rx="12.5" ry="12.5" style="stroke:#181818;stroke-width:0.5;" width="73.4844" x="323.44" y="992"/><line style="stroke:#181818;stroke-width:0.5;" x1="323.44" x2="396.9244" y1="1018.2969" y2="1018.2969"/><text fill="#000000" font-family="sans-serif" font-size="14" lengthAdjust="spacing" textLength="53.4844" x="333.44" y="1009.9951">FinRuta</text></g><ellipse cx="360.18" cy="1257" fill="none" rx="11" ry="11" style="stroke:#222222;stroke-width:1.0;"/><ellipse cx="360.18" cy="1257" fill="#222222" rx="6" ry="6" style="stroke:#222222;stroke-width:1.0;"/><g id="FinDelDia"><rect fill="#F1F1F1" height="50" rx="12.5" ry="12.5" style="stroke:#181818;stroke-width:0.5;" width="87.3477" x="482.51" y="1119"/><line style="stroke:#181818;stroke-width:0.5;" x1="482.51" x2="569.8577" y1="1145.2969" y2="1145.2969"/><text fill="#000000" font-family="sans-serif" font-size="14" lengthAdjust="spacing" textLength="67.3477" x="492.51" y="1136.9951">FinDelDia</text></g><!--link *start* to InicioDelDia--><g id="link_*start*_InicioDelDia"><path d="M448.18,26.38 C448.18,43.11 448.18,72.59 448.18,96.63 " fill="none" id="*start*-to-InicioDelDia" style="stroke:#181818;stroke-width:1.0;"/><polygon fill="#181818" points="448.18,102.63,452.18,93.63,448.18,97.63,444.18,93.63,448.18,102.63" style="stroke:#181818;stroke-width:1.0;"/><text fill="#000000" font-family="sans-serif" font-size="13" lengthAdjust="spacing" textLength="104.0381" x="449.18" y="69.0669">Comienza el d&#237;a</text></g><!--link InicioDelDia to InicioRuta--><g id="link_InicioDelDia_InicioRuta"><path d="M448.18,153.4 C448.18,175.42 448.18,201.66 448.18,223.66 " fill="none" id="InicioDelDia-to-InicioRuta" style="stroke:#181818;stroke-width:1.0;"/><polygon fill="#181818" points="448.18,229.66,452.18,220.66,448.18,224.66,444.18,220.66,448.18,229.66" style="stroke:#181818;stroke-width:1.0;"/><text fill="#000000" font-family="sans-serif" font-size="13" lengthAdjust="spacing" textLength="74.2231" x="449.18" y="196.0669">Iniciar Ruta</text></g><!--link InicioRuta to SinPasajeros--><g id="link_InicioRuta_SinPasajeros"><path d="M416.89,280.29 C408.12,288.73 399.53,298.89 394.18,310 C387.24,324.42 385.3654,336.3309 385.1154,350.5609 " fill="none" id="InicioRuta-to-SinPasajeros" style="stroke:#181818;stroke-width:1.0;"/><polygon fill="#181818" points="385.01,356.56,389.1675,347.6317,385.0978,351.5608,381.1687,347.4911,385.01,356.56" style="stroke:#181818;stroke-width:1.0;"/><text fill="#000000" font-family="sans-serif" font-size="13" lengthAdjust="spacing" textLength="86.874" x="395.18" y="323.0669">Sin pasajeros</text></g><!--link SinPasajeros to Parada--><g id="link_SinPasajeros_Parada"><path d="M376.03,407.4 C366.87,429.42 355.7641,456.12 346.6141,478.12 " fill="none" id="SinPasajeros-to-Parada" style="stroke:#181818;stroke-width:1.0;"/><polygon fill="#181818" points="344.31,483.66,351.4595,476.8862,346.2301,479.0434,344.0729,473.814,344.31,483.66" style="stroke:#181818;stroke-width:1.0;"/><text fill="#000000" font-family="sans-serif" font-size="13" lengthAdjust="spacing" textLength="101.9814" x="364.18" y="450.0669">Llegar a Parada</text></g><!--link Parada to RecogePasajero--><g id="link_Parada_RecogePasajero"><path d="M299.3,517.43 C272.81,524.84 237.41,538.88 216.18,564 C205.23,576.96 201.3222,589.6725 199.3322,604.6125 " fill="none" id="Parada-to-RecogePasajero" style="stroke:#181818;stroke-width:1.0;"/><polygon fill="#181818" points="198.54,610.56,203.6933,602.1669,199.2002,605.6038,195.7633,601.1107,198.54,610.56" style="stroke:#181818;stroke-width:1.0;"/><text fill="#000000" font-family="sans-serif" font-size="13" lengthAdjust="spacing" textLength="90.8477" x="217.18" y="577.0669">Pasajero sube</text></g><!--link RecogePasajero to EnMovimiento--><g id="link_RecogePasajero_EnMovimiento"><path d="M192.08,661.24 C190.01,675.08 188.81,692.67 192.18,708 C194.4,718.09 196.0503,723.1568 200.4703,732.1368 " fill="none" id="RecogePasajero-to-EnMovimiento" style="stroke:#181818;stroke-width:1.0;"/><polygon fill="#181818" points="203.12,737.52,202.7343,727.6787,200.912,733.034,195.5567,731.2116,203.12,737.52" style="stroke:#181818;stroke-width:1.0;"/><text fill="#000000" font-family="sans-serif" font-size="13" lengthAdjust="spacing" textLength="114.918" x="193.18" y="704.0669">Continuar en ruta</text></g><!--link EnMovimiento to Parada--><g id="link_EnMovimiento_Parada"><path d="M277.33,739.08 C290.8,731.2 303.63,720.99 312.18,708 C347.56,654.27 343.8962,580.0422 338.8362,540.2122 " fill="none" id="EnMovimiento-to-Parada" style="stroke:#181818;stroke-width:1.0;"/><polygon fill="#181818" points="338.08,534.26,335.2461,543.6923,338.7101,539.2201,343.1824,542.6841,338.08,534.26" style="stroke:#181818;stroke-width:1.0;"/><text fill="#000000" font-family="sans-serif" font-size="13" lengthAdjust="spacing" textLength="102.9526" x="342.18" y="640.5669">Pr&#243;xima parada</text></g><!--link EnMovimiento to Incidencia--><g id="link_EnMovimiento_Incidencia"><path d="M157.05,765.14 C117.21,769.42 67.59,782.27 41.18,818 C6,865.59 101.4501,880.8794 164.3401,886.0394 " fill="none" id="EnMovimiento-to-Incidencia" style="stroke:#181818;stroke-width:1.0;"/><polygon fill="#181818" points="170.32,886.53,161.6772,881.8074,165.3367,886.1211,161.023,889.7806,170.32,886.53" style="stroke:#181818;stroke-width:1.0;"/><text fill="#000000" font-family="sans-serif" font-size="13" lengthAdjust="spacing" textLength="131.5234" x="42.18" y="831.0669">Problema detectado</text></g><!--link Incidencia to EnMovimiento--><g id="link_Incidencia_EnMovimiento"><path d="M214.82,864.68 C214.23,850.97 213.75,833.53 214.18,818 C214.45,808.33 214.6403,803.6898 215.1803,794.4398 " fill="none" id="Incidencia-to-EnMovimiento" style="stroke:#181818;stroke-width:1.0;"/><polygon fill="#181818" points="215.53,788.45,211.0123,797.2016,215.2386,793.4415,218.9987,797.6678,215.53,788.45" style="stroke:#181818;stroke-width:1.0;"/><text fill="#000000" font-family="sans-serif" font-size="13" lengthAdjust="spacing" textLength="118.7773" x="215.18" y="831.0669">Problema resuelto</text></g><!--link Incidencia to FinRuta--><g id="link_Incidencia_FinRuta"><path d="M208.19,915.44 C204.95,930.19 203.86,948.65 213.18,962 C237.85,997.34 282.3637,1008.8975 317.2337,1013.1275 " fill="none" id="Incidencia-to-FinRuta" style="stroke:#181818;stroke-width:1.0;"/><polygon fill="#181818" points="323.19,1013.85,314.7372,1008.7953,318.2264,1013.2479,313.7738,1016.7371,323.19,1013.85" style="stroke:#181818;stroke-width:1.0;"/><text fill="#000000" font-family="sans-serif" font-size="13" lengthAdjust="spacing" textLength="119.0884" x="214.18" y="958.0669">Ruta interrumpida</text></g><!--link EnMovimiento to FinRuta--><g id="link_EnMovimiento_FinRuta"><path d="M277.37,777.27 C299.92,785.31 323.6,798.03 338.18,818 C376.23,870.09 371.3908,945.4335 365.4808,985.7235 " fill="none" id="EnMovimiento-to-FinRuta" style="stroke:#181818;stroke-width:1.0;"/><polygon fill="#181818" points="364.61,991.66,369.8738,983.3358,365.3357,986.7129,361.9586,982.1748,364.61,991.66" style="stroke:#181818;stroke-width:1.0;"/><text fill="#000000" font-family="sans-serif" font-size="13" lengthAdjust="spacing" textLength="93.5771" x="368.18" y="894.5669">Terminar Ruta</text></g><!--link FinRuta to *end*--><g id="link_FinRuta_*end*"><path d="M356.38,1042.31 C352.18,1072.14 346.36,1124.27 349.18,1169 C350.94,1196.96 354.8879,1223.7476 357.5179,1239.9376 " fill="none" id="FinRuta-to-*end*" style="stroke:#181818;stroke-width:1.0;"/><polygon fill="#181818" points="358.48,1245.86,360.9851,1236.3351,357.6783,1240.9247,353.0887,1237.6178,358.48,1245.86" style="stroke:#181818;stroke-width:1.0;"/><text fill="#000000" font-family="sans-serif" font-size="13" lengthAdjust="spacing" textLength="114.7974" x="350.18" y="1148.5669">No hay m&#225;s rutas</text></g><!--link FinRuta to InicioRuta--><g id="link_FinRuta_InicioRuta"><path d="M397.15,1003.3 C440.98,985.6 508.18,949.02 508.18,891 C508.18,381 508.18,381 508.18,381 C508.18,342.97 488.8593,309.1222 471.3593,285.0622 " fill="none" id="FinRuta-to-InicioRuta" style="stroke:#181818;stroke-width:1.0;"/><polygon fill="#181818" points="467.83,280.21,469.8891,289.8412,470.7711,284.2535,476.3587,285.1355,467.83,280.21" style="stroke:#181818;stroke-width:1.0;"/><text fill="#000000" font-family="sans-serif" font-size="13" lengthAdjust="spacing" textLength="91.0317" x="509.18" y="640.5669">Reiniciar Ruta</text></g><!--link FinRuta to FinDelDia--><g id="link_FinRuta_FinDelDia"><path d="M392.58,1042.4 C421.83,1064.42 459.8467,1093.0511 489.0667,1115.0511 " fill="none" id="FinRuta-to-FinDelDia" style="stroke:#181818;stroke-width:1.0;"/><polygon fill="#181818" points="493.86,1118.66,489.076,1110.0511,489.8656,1115.6526,484.2641,1116.4422,493.86,1118.66" style="stroke:#181818;stroke-width:1.0;"/><text fill="#000000" font-family="sans-serif" font-size="13" lengthAdjust="spacing" textLength="160.6719" x="453.18" y="1085.0669">Evaluar si hay m&#225;s rutas</text></g><!--link FinDelDia to *end*--><g id="link_FinDelDia_*end*"><path d="M489.75,1169.36 C450.81,1195.4 396.6368,1231.6136 374.2168,1246.6136 " fill="none" id="FinDelDia-to-*end*" style="stroke:#181818;stroke-width:1.0;"/><polygon fill="#181818" points="369.23,1249.95,378.9345,1248.2699,373.3857,1247.1697,374.486,1241.6208,369.23,1249.95" style="stroke:#181818;stroke-width:1.0;"/><text fill="#000000" font-family="sans-serif" font-size="13" lengthAdjust="spacing" textLength="78.8633" x="444.18" y="1212.0669">Final del d&#237;a</text></g><!--SRC=[RPB1JiCm38RlVGgVaVO2Et1XGve4Q2hS9WvUQmsZD9cIT0BUXWVWn2FqnR2pjclABcriV_xr9_RkvXKMYrlOMAxOhSYi6649TwvXiby8PA3kVh0eCk3IKRPH-HIW1mq7DfMKV6QxnO3lv5qGLa8u3d6H5PNUeiTQDHyC7KGI-qpH5vGfgN876lg47O-XtLCnAsl7sZww4-kbealtiv5jA_9amQlf3CXyR7tt-y4DYkdaup-wiHNN99ypxlQ61AyfKXMnTiMahlWzs_xPqezj9E_RviWYFaDdjaTjJw4b4zqLCnVr5_8Dss4gGrwPdKnz2KyEtl0Jckuxf3S86PFDjoJE9Zm5vJpkpVg4Hbyry1NfoVAS3KWEPR_w7Vi3]--></g></svg>